<svg width="163" height="191" viewBox="0 0 163 191" fill="none" xmlns="http://www.w3.org/2000/svg">
<path d="M155.051 75.4057C149.643 62.6051 142.033 55.4326 134.558 51.9186C127.13 48.3831 120.144 48.4263 116.339 48.4199C116.306 48.4199 116.28 48.4199 116.26 48.4207C116.25 48.4207 116.233 48.4199 116.199 48.4199C111.144 48.4007 100.355 48.4103 90.5452 56.7237C86.1227 60.4454 81.9949 65.7395 78.5598 73.0247C76.931 63.2147 74.2746 56.4864 71.1116 51.6757C68.4745 47.6912 65.3894 45.1368 62.5396 43.7218C59.847 42.3699 57.4797 42.0471 56.0234 42.0184C55.9006 42.0112 55.7786 42 55.6533 42H24.638C24.5136 42 24.3916 42.0112 24.2688 42.0184C22.8125 42.0471 20.4419 42.3691 17.751 43.7202C13.4329 45.8519 8.77676 50.5132 5.5199 58.7747C2.22369 67.0682 0.00963333 79.057 0 97.1613C0 101.841 0.150119 106.93 0.47685 112.47C0.676741 115.866 3.50733 118.488 6.88221 118.488C7.00905 118.488 7.13589 118.485 7.26353 118.477C10.8046 118.269 13.5067 115.245 13.2996 111.721C12.9857 106.406 12.8436 101.566 12.8436 97.1605C12.8163 77.8146 15.6509 66.946 18.4342 61.2716V181.12C18.4342 186.577 22.8792 190.998 28.3589 190.998C33.8403 190.998 38.2853 186.577 38.2853 181.12V108.995H42.0061V181.121C42.0061 186.578 46.4511 190.998 51.9309 190.998C57.4122 190.998 61.8572 186.578 61.8572 181.121V61.3067C62.3332 62.2783 62.8125 63.3929 63.2869 64.6928C65.55 70.9353 67.4534 81.176 67.4453 97.1629C67.4453 101.569 67.3032 106.409 66.9926 111.724C66.7854 115.246 69.4884 118.271 73.0303 118.477C73.1571 118.485 73.2831 118.489 73.4092 118.489C76.784 118.489 79.6154 115.867 79.8153 112.469C79.8466 111.927 79.8691 111.41 79.898 110.877C79.9165 110.766 79.9365 110.656 79.9486 110.544C81.3687 96.8449 83.9785 86.7729 87.0957 79.4621C89.6598 73.5017 92.4791 69.3917 95.3314 66.477L81.4835 137.844H98.8765V183.01C98.8765 187.423 102.471 191 106.904 191C111.336 191 114.932 187.423 114.932 183.01V137.844H117.608V183.01C117.608 187.423 121.202 191 125.636 191C130.068 191 133.664 187.423 133.664 183.01V137.844H151.057L137.208 66.4762C140.057 69.3893 142.902 73.5089 145.442 79.4621C148.56 86.7729 151.171 96.8449 152.591 110.544C152.887 113.396 155.451 115.471 158.317 115.177C161.184 114.881 163.269 112.329 162.972 109.477C161.467 95.0096 158.687 83.95 155.051 75.4057Z" fill="url(#paint0_linear_276_6246)"/>
<path d="M40 36C49.9411 36 58 27.9411 58 18C58 8.05888 49.9411 0 40 0C30.0589 0 22 8.05888 22 18C22 27.9411 30.0589 36 40 36Z" fill="url(#paint1_linear_276_6246)"/>
<path d="M116.5 43C125.613 43 133 35.165 133 25.5C133 15.835 125.613 8 116.5 8C107.387 8 100 15.835 100 25.5C100 35.165 107.387 43 116.5 43Z" fill="url(#paint2_linear_276_6246)"/>
<defs>
<linearGradient id="paint0_linear_276_6246" x1="0" y1="42" x2="163" y2="42" gradientUnits="userSpaceOnUse">
<stop stop-color="#C19B61"/>
<stop offset="0.502893" stop-color="#B48650"/>
<stop offset="1" stop-color="#9C5F30"/>
</linearGradient>
<linearGradient id="paint1_linear_276_6246" x1="22" y1="0" x2="58" y2="2.60124e-08" gradientUnits="userSpaceOnUse">
<stop stop-color="#C19B61"/>
<stop offset="0.502893" stop-color="#B48650"/>
<stop offset="1" stop-color="#9C5F30"/>
</linearGradient>
<linearGradient id="paint2_linear_276_6246" x1="100" y1="8" x2="133" y2="8" gradientUnits="userSpaceOnUse">
<stop stop-color="#C19B61"/>
<stop offset="0.502893" stop-color="#B48650"/>
<stop offset="1" stop-color="#9C5F30"/>
</linearGradient>
</defs>
</svg>
