<svg width="201" height="201" viewBox="0 0 201 201" fill="none" xmlns="http://www.w3.org/2000/svg">
<path d="M49.1111 8H28.5556C23.1039 8 17.8755 10.1657 14.0206 14.0206C10.1657 17.8755 8 23.1039 8 28.5556V49.1111M151.889 8H172.444C177.896 8 183.124 10.1657 186.979 14.0206C190.834 17.8755 193 23.1039 193 28.5556V49.1111M141.611 59.3889V79.9444M59.3889 59.3889V79.9444M69.6667 141.611C69.6667 141.611 79.9444 151.889 100.5 151.889C121.056 151.889 131.333 141.611 131.333 141.611M100.5 59.3889V110.778H90.2222M49.1111 193H28.5556C23.1039 193 17.8755 190.834 14.0206 186.979C10.1657 183.124 8 177.896 8 172.444V151.889M151.889 193H172.444C177.896 193 183.124 190.834 186.979 186.979C190.834 183.124 193 177.896 193 172.444V151.889" stroke="url(#paint0_linear_276_12655)" stroke-width="15.4167" stroke-linecap="round" stroke-linejoin="round"/>
<defs>
<linearGradient id="paint0_linear_276_12655" x1="8" y1="8" x2="193" y2="8" gradientUnits="userSpaceOnUse">
<stop stop-color="#C19B61"/>
<stop offset="0.502893" stop-color="#B48650"/>
<stop offset="1" stop-color="#9C5F30"/>
</linearGradient>
</defs>
</svg>
