<svg width="32" height="27" viewBox="0 0 32 27" fill="none" xmlns="http://www.w3.org/2000/svg">
<path d="M9.67422 12.8532C11.9316 12.8532 13.7615 11.0232 13.7615 8.76589C13.7615 6.50854 11.9316 4.67859 9.67422 4.67859C7.41686 4.67859 5.58691 6.50854 5.58691 8.76589C5.58691 11.0232 7.41686 12.8532 9.67422 12.8532Z" stroke="#D2D2D2" stroke-linecap="round"/>
<path d="M15.8345 9.58339C16.0477 9.20852 16.3329 8.87951 16.6737 8.6153C17.0145 8.35109 17.4042 8.1569 17.8203 8.04392C18.2365 7.93093 18.6709 7.90138 19.0985 7.95696C19.5262 8.01255 19.9386 8.15217 20.312 8.36778C20.6855 8.5834 21.0126 8.87076 21.2745 9.21331C21.5365 9.55587 21.7281 9.94685 21.8383 10.3638C21.9485 10.7807 21.9752 11.2152 21.9168 11.6425C21.8584 12.0697 21.716 12.4812 21.4979 12.8532C21.0612 13.5981 20.3476 14.1401 19.5129 14.3608C18.6781 14.5815 17.7899 14.463 17.0421 14.0313C16.2943 13.5995 15.7477 12.8896 15.5215 12.0563C15.2952 11.223 15.4078 10.334 15.8345 9.58339Z" stroke="#D2D2D2"/>
<path d="M9.17391 16.4511V15.8156C6.02351 15.9444 3.98055 17.2895 2.66914 18.9753C1.45426 20.5409 0.88124 22.381 0.610526 23.7665L1.23728 23.8669C1.49885 22.5405 2.04292 20.8165 3.17105 19.3656L9.17391 16.4511ZM9.17391 16.4511C6.23086 16.5783 4.36579 17.8284 3.17112 19.3655L9.17391 16.4511ZM18.7373 23.7665L18.1106 23.8669C17.849 22.5395 17.3049 20.8165 16.1767 19.3655C14.9805 17.8268 13.1168 16.5782 10.1739 16.4511V15.8156C13.3245 15.9444 15.3674 17.2897 16.6788 18.977L16.6788 18.9771C17.8948 20.5409 18.4667 22.3816 18.7373 23.7665ZM1.19585 24.873C1.29579 25.1556 1.51618 25.3922 1.81676 25.5179V26.1844C1.13879 26.0027 0.611118 25.4594 0.516078 24.7641L1.19585 24.873ZM16.531 26.25H2.81676V25.6151H16.531V26.25ZM17.531 26.1844V25.5179C17.8316 25.3922 18.052 25.1556 18.152 24.873L18.8312 24.7642C18.7357 25.4596 18.2084 26.0026 17.531 26.1844Z" stroke="#D2D2D2"/>
<mask id="path-4-inside-1_319_18876" fill="white">
<path d="M15.8866 18.5443L15.4484 17.8544L14.6064 18.389L15.2964 19.1083L15.8866 18.5443ZM23.399 25.115H17.031V26.75H23.399V25.115ZM24.0808 24.3597C24.1675 24.7112 23.9108 25.115 23.399 25.115V26.75C24.8214 26.75 26.0476 25.4878 25.6667 23.9624L24.0808 24.3597ZM18.666 18.5754C20.3467 18.5754 21.5271 19.3977 22.3903 20.5487C23.2732 21.7226 23.7898 23.2054 24.0808 24.3597L25.6667 23.9624C25.3528 22.7133 24.7675 20.9934 23.6982 19.5661C22.611 18.1176 20.9875 16.9404 18.666 16.9404V18.5754ZM16.3247 19.2342C16.9624 18.8304 17.7275 18.5754 18.666 18.5754V16.9404C17.4103 16.9404 16.3427 17.287 15.4484 17.8544L16.3247 19.2342ZM15.2964 19.1083C16.8447 20.7269 17.4643 22.9324 17.7046 24.4382L19.3183 24.1799C19.0567 22.5449 18.3651 19.952 16.4784 17.9786L15.2964 19.1083ZM17.7046 24.4382C17.7553 24.7603 17.5084 25.115 17.031 25.115V26.75C18.3602 26.75 19.5504 25.6415 19.3183 24.1799L17.7046 24.4382Z"/>
</mask>
<path d="M24.0808 24.3597L23.9588 23.8748L24.2023 24.8447L24.0808 24.3597ZM19.3183 24.1799L19.3973 24.6736L19.2393 23.6861L19.3183 24.1799ZM24.7518 23.6753L23.9588 23.8748L24.2028 24.8446L24.9957 24.6451L24.7518 23.6753ZM18.5896 24.8027L19.3972 24.6736L19.2393 23.6861L18.4317 23.8153L18.5896 24.8027ZM16.531 25.115V26.75H17.531V25.115H16.531ZM23.899 26.75V25.115H22.899V26.75H23.899ZM25.5452 23.4774L23.9593 23.8747L24.2023 24.8447L25.7882 24.4474L25.5452 23.4774ZM18.166 16.9404V18.5754H19.166V16.9404H18.166ZM17.7837 24.9319L19.3973 24.6736L19.2393 23.6861L17.6256 23.9445L17.7837 24.9319ZM24.0808 24.3597L25.0518 24.1203L25.0505 24.1152L24.0808 24.3597ZM15.8866 18.5443L16.5775 19.2672L17.1704 18.7006L16.7307 18.0082L15.8866 18.5443ZM15.4484 17.8544L14.9128 17.0099L14.9124 17.0101L15.4484 17.8544ZM14.6064 18.389L14.0704 17.5448L13.0392 18.1995L13.8847 19.0812L14.6064 18.389ZM19.3183 24.1799L20.3059 24.023L20.3057 24.0219L19.3183 24.1799ZM25.6667 23.9624L26.6369 23.7201L26.6365 23.7187L25.6667 23.9624ZM22.3903 20.5487L21.5903 21.1487L21.5911 21.1498L22.3903 20.5487ZM23.6982 19.5661L24.4986 18.9666L24.498 18.9658L23.6982 19.5661ZM16.3247 19.2342L15.4806 19.7703L16.016 20.6134L16.8598 20.079L16.3247 19.2342ZM17.7046 24.4382L18.6925 24.2827L18.6921 24.2806L17.7046 24.4382ZM16.4784 17.9786L17.2012 17.2875L16.5103 16.5649L15.7875 17.2557L16.4784 17.9786ZM16.7307 18.0082L16.2926 17.3183L14.6043 18.3904L15.0424 19.0804L16.7307 18.0082ZM14.9124 17.0101L14.0704 17.5448L15.1425 19.2332L15.9845 18.6986L14.9124 17.0101ZM13.8847 19.0812L14.5747 19.8005L16.0181 18.4161L15.3282 17.6968L13.8847 19.0812ZM15.9873 19.8313L16.5775 19.2672L15.1957 17.8213L14.6055 18.3854L15.9873 19.8313ZM23.399 24.115H17.031V26.115H23.399V24.115ZM17.031 27.75H23.399V25.75H17.031V27.75ZM23.1099 24.599C23.0767 24.4645 23.1116 24.3332 23.1871 24.24C23.274 24.1326 23.3768 24.115 23.399 24.115V26.115C24.5252 26.115 25.302 25.1356 25.0517 24.1204L23.1099 24.599ZM23.399 27.75C25.3642 27.75 27.2005 25.9772 26.6369 23.7201L24.6965 24.2047C24.8947 24.9984 24.2787 25.75 23.399 25.75V27.75ZM18.666 19.5754C19.9552 19.5754 20.8646 20.1811 21.5903 21.1487L23.1903 19.9487C22.1895 18.6143 20.7381 17.5754 18.666 17.5754V19.5754ZM21.5911 21.1498C22.3576 22.169 22.8336 23.5034 23.1112 24.6042L25.0505 24.1152C24.746 22.9075 24.1887 21.2762 23.1895 19.9476L21.5911 21.1498ZM26.6365 23.7187C26.3085 22.4135 25.6825 20.5469 24.4986 18.9666L22.8979 20.1657C23.8525 21.4399 24.397 23.0132 24.6968 24.2061L26.6365 23.7187ZM24.498 18.9658C23.2744 17.3356 21.3804 15.9404 18.666 15.9404V17.9404C20.5947 17.9404 21.9476 18.8995 22.8985 20.1664L24.498 18.9658ZM16.8598 20.079C17.3419 19.7737 17.9223 19.5754 18.666 19.5754V17.5754C17.5327 17.5754 16.5828 17.8871 15.7897 18.3894L16.8598 20.079ZM18.666 15.9404C17.2159 15.9404 15.9632 16.3436 14.9128 17.0099L15.9841 18.6988C16.7223 18.2305 17.6048 17.9404 18.666 17.9404V15.9404ZM14.6043 18.3904L15.4806 19.7703L17.1689 18.6981L16.2926 17.3183L14.6043 18.3904ZM14.5738 19.7996C15.9153 21.202 16.4893 23.1686 16.7171 24.5958L18.6921 24.2806C18.4392 22.6962 17.774 20.2518 16.019 18.4171L14.5738 19.7996ZM20.3057 24.0219C20.0317 22.3091 19.2947 19.4771 17.2012 17.2875L15.7556 18.6697C17.4356 20.4268 18.0817 22.7808 18.3308 24.3378L20.3057 24.0219ZM15.7875 17.2557L14.6055 18.3854L15.9873 19.8313L17.1694 18.7015L15.7875 17.2557ZM16.7168 24.5936C16.6946 24.4525 16.7393 24.3217 16.8197 24.2316C16.9104 24.13 17.0098 24.115 17.031 24.115V26.115C18.0789 26.115 18.8453 25.2541 18.6925 24.2827L16.7168 24.5936ZM17.031 27.75C18.8688 27.75 20.6505 26.1923 20.3059 24.023L18.3307 24.3367C18.4504 25.0906 17.8516 25.75 17.031 25.75V27.75Z" fill="#D2D2D2" mask="url(#path-4-inside-1_319_18876)"/>
<path d="M30.1105 4.2699H23.5708C23.3451 4.2699 23.1621 4.45289 23.1621 4.67863C23.1621 4.90436 23.3451 5.08736 23.5708 5.08736H30.1105C30.3363 5.08736 30.5193 4.90436 30.5193 4.67863C30.5193 4.45289 30.3363 4.2699 30.1105 4.2699Z" stroke="#D2D2D2" stroke-linecap="round"/>
<path d="M27.249 7.94841V1.40873C27.249 1.18299 27.066 1 26.8403 1C26.6146 1 26.4316 1.18299 26.4316 1.40873V7.94841C26.4316 8.17415 26.6146 8.35714 26.8403 8.35714C27.066 8.35714 27.249 8.17415 27.249 7.94841Z" stroke="#D2D2D2" stroke-linecap="round"/>
</svg>
