<svg width="22" height="22" viewBox="0 0 22 22" fill="none" xmlns="http://www.w3.org/2000/svg">
<path d="M2.44444 22C1.77222 22 1.19696 21.7608 0.718667 21.2826C0.24037 20.8043 0.000814815 20.2286 0 19.5556V2.44444C0 1.77222 0.239556 1.19696 0.718667 0.718667C1.19778 0.24037 1.77304 0.000814815 2.44444 0H15.8889L22 6.11111V19.5556C22 20.2278 21.7608 20.8034 21.2826 21.2826C20.8043 21.7617 20.2286 22.0008 19.5556 22H2.44444ZM2.44444 19.5556H19.5556V7.33333H14.6667V2.44444H2.44444V19.5556ZM4.88889 17.1111H17.1111V14.6667H4.88889V17.1111ZM4.88889 7.33333H11V4.88889H4.88889V7.33333ZM4.88889 12.2222H17.1111V9.77778H4.88889V12.2222Z" fill="#6D7076"/>
</svg>
