<svg width="29" height="29" viewBox="0 0 29 29" fill="none" xmlns="http://www.w3.org/2000/svg">
<circle cx="14.0137" cy="14.0137" r="14.0137" fill="#424242"/>
<path d="M13.6499 21.4432C13.9042 21.6972 14.2489 21.8398 14.6083 21.8398C14.9677 21.8398 15.3123 21.6972 15.5666 21.4432L20.683 16.3296C20.9374 16.0752 21.0803 15.7301 21.0803 15.3703C21.0803 15.0105 20.9374 14.6655 20.683 14.4111C20.4286 14.1567 20.0835 14.0137 19.7237 14.0137C19.3639 14.0137 19.0189 14.1567 18.7645 14.4111L15.9644 17.2102L15.9644 6.78128C15.9644 6.42161 15.8216 6.07666 15.5672 5.82233C15.3129 5.568 14.9679 5.42512 14.6083 5.42512C14.2486 5.42512 13.9036 5.568 13.6493 5.82233C13.395 6.07666 13.2521 6.42161 13.2521 6.78128L13.2521 17.2102L10.453 14.4111C10.327 14.2851 10.1775 14.1852 10.0129 14.117C9.84828 14.0488 9.67188 14.0137 9.49372 14.0137C9.31557 14.0137 9.13917 14.0488 8.97458 14.117C8.80999 14.1852 8.66044 14.2851 8.53446 14.4111C8.40849 14.537 8.30857 14.6866 8.24039 14.8512C8.17222 15.0158 8.13713 15.1922 8.13713 15.3703C8.13713 15.5485 8.17222 15.7249 8.24039 15.8895C8.30857 16.0541 8.40849 16.2036 8.53446 16.3296L13.6499 21.4432Z" fill="url(#paint0_linear_442_24573)"/>
<defs>
<linearGradient id="paint0_linear_442_24573" x1="21.0803" y1="21.8398" x2="8.13712" y2="21.8398" gradientUnits="userSpaceOnUse">
<stop stop-color="#C19B61"/>
<stop offset="0.502893" stop-color="#B48650"/>
<stop offset="1" stop-color="#9C5F30"/>
</linearGradient>
</defs>
</svg>
