<svg width="22" height="22" viewBox="0 0 22 22" fill="none" xmlns="http://www.w3.org/2000/svg">
<path d="M20.9791 2.93596C21.1456 2.78074 21.2793 2.59355 21.3719 2.38557C21.4646 2.17759 21.5144 1.95307 21.5184 1.72542C21.5225 1.49776 21.4806 1.27163 21.3953 1.06051C21.31 0.849387 21.1831 0.657605 21.0221 0.496602C20.8611 0.3356 20.6693 0.208675 20.4582 0.1234C20.2471 0.0381255 20.0209 -0.00375286 19.7933 0.000263868C19.5656 0.0042806 19.3411 0.05411 19.1331 0.14678C18.9252 0.239449 18.738 0.37306 18.5828 0.539642L8.90706 10.2153L7.91236 13.6063L11.3034 12.6116L20.9791 2.93596ZM10.7382 1.17263C11.1879 1.17263 11.6191 1.35126 11.9371 1.66923C12.2551 1.9872 12.4337 2.41846 12.4337 2.86814C12.4337 3.31781 12.2551 3.74907 11.9371 4.06704C11.6191 4.38501 11.1879 4.56364 10.7382 4.56364H5.08652C4.63684 4.56364 4.20558 4.74228 3.88761 5.06025C3.56965 5.37821 3.39101 5.80947 3.39101 6.25915V16.4322C3.39101 17.3681 4.1506 18.1277 5.08652 18.1277H15.2596C15.7092 18.1277 16.1405 17.9491 16.4585 17.6311C16.7764 17.3131 16.9551 16.8819 16.9551 16.4322V10.7805C16.9551 10.3308 17.1337 9.89957 17.4517 9.5816C17.7696 9.26363 18.2009 9.08499 18.6506 9.08499C19.1002 9.08499 19.5315 9.26363 19.8495 9.5816C20.1674 9.89957 20.3461 10.3308 20.3461 10.7805V16.4322C20.3461 17.7812 19.8102 19.075 18.8563 20.0289C17.9024 20.9828 16.6086 21.5187 15.2596 21.5187H5.08652C3.73749 21.5187 2.44371 20.9828 1.48981 20.0289C0.5359 19.075 0 17.7812 0 16.4322V6.25915C0 4.91012 0.5359 3.61635 1.48981 2.66244C2.44371 1.70853 3.73749 1.17263 5.08652 1.17263H10.7382Z" fill="#D2D2D2"/>
</svg>
