<svg width="24" height="24" viewBox="0 0 24 24" fill="none" xmlns="http://www.w3.org/2000/svg">
<path d="M21.8182 17.4545V7.63636H6.54545V17.4545H21.8182ZM21.8182 2.18182C22.3968 2.18182 22.9518 2.41169 23.361 2.82086C23.7701 3.23003 24 3.78498 24 4.36364V17.4545C24 18.0332 23.7701 18.5882 23.361 18.9973C22.9518 19.4065 22.3968 19.6364 21.8182 19.6364H6.54545C5.9668 19.6364 5.41185 19.4065 5.00268 18.9973C4.59351 18.5882 4.36364 18.0332 4.36364 17.4545V4.36364C4.36364 3.78498 4.59351 3.23003 5.00268 2.82086C5.41185 2.41169 5.9668 2.18182 6.54545 2.18182H7.63636V0H9.81818V2.18182H18.5455V0H20.7273V2.18182H21.8182ZM2.18182 21.8182H17.4545V24H2.18182C1.60316 24 1.04821 23.7701 0.63904 23.361C0.22987 22.9518 0 22.3968 0 21.8182V8.72727H2.18182V21.8182ZM19.6364 15.2727H15.2727V10.9091H19.6364V15.2727Z" fill="#6D7076"/>
</svg>
