<svg width="27" height="27" viewBox="0 0 27 27" fill="none" xmlns="http://www.w3.org/2000/svg">
<path d="M26 13.5C26 16.8152 24.683 19.9946 22.3388 22.3388C19.9946 24.683 16.8152 26 13.5 26C10.1848 26 7.00537 24.683 4.66117 22.3388C2.31696 19.9946 1 16.8152 1 13.5M26 13.5C26 10.1848 24.683 7.00537 22.3388 4.66117C19.9946 2.31696 16.8152 1 13.5 1C10.1848 1 7.00537 2.31696 4.66117 4.66117C2.31696 7.00537 1 10.1848 1 13.5M26 13.5H1" stroke="#D2D2D2" stroke-width="2" stroke-linecap="round" stroke-linejoin="round"/>
<path d="M18.3078 13.5C18.0716 18.0711 16.3879 22.4487 13.5001 26C10.6122 22.4487 8.92853 18.0711 8.69238 13.5C8.92853 8.92886 10.6122 4.55125 13.5001 1C16.3879 4.55125 18.0716 8.92886 18.3078 13.5Z" stroke="#D2D2D2" stroke-width="2" stroke-linecap="round" stroke-linejoin="round"/>
</svg>
