<svg width="16" height="14" viewBox="0 0 16 14" fill="none" xmlns="http://www.w3.org/2000/svg">
<path d="M12.6068 8.97394L13.1162 9.4869C14.2068 8.6214 15.0598 7.49162 15.5934 6.20363C14.3581 3.22303 11.4271 1.12601 8.00546 1.12601C7.03764 1.12601 6.10855 1.29515 5.2461 1.60135L5.81502 2.16658C6.51252 1.96424 7.25198 1.85138 8.00541 1.85138L12.6068 8.97394ZM12.6068 8.97394C13.5008 8.27651 14.2269 7.38453 14.7287 6.36359L14.8072 6.20388L14.7289 6.04406C14.1127 4.78615 13.156 3.72637 11.9674 2.9852C10.7788 2.24403 9.40617 1.85121 8.00546 1.85138L12.6068 8.97394ZM1.20366 6.2033L1.28222 6.04355C1.7392 5.11436 2.37168 4.30637 3.12682 3.65802L3.38223 3.43873L3.61991 3.67712L6.08618 6.15063L6.17635 6.24107L6.18996 6.36806C6.23524 6.79044 6.42373 7.18459 6.72411 7.48496C7.02448 7.78534 7.41863 7.97383 7.84101 8.01911L7.96874 8.0328L8.05937 8.12383L9.71322 9.78493L10.1782 10.2519L9.53488 10.3949C9.04965 10.5027 8.52985 10.5558 8.00551 10.5558L1.20366 6.2033ZM1.20366 6.2033L1.28197 6.36316M1.20366 6.2033L1.28197 6.36316M1.28197 6.36316C1.89818 7.62107 2.85495 8.68085 4.04353 9.42202M1.28197 6.36316L4.04353 9.42202M4.04353 9.42202C5.23208 10.1632 6.60475 10.556 8.00546 10.5558L4.04353 9.42202ZM13.2965 12.5299L12.8862 12.9434L10.9095 10.9667L10.7515 10.8087L10.5393 10.8788C9.74216 11.1422 8.89564 11.2812 8.00546 11.2812C4.58366 11.2812 1.6526 9.18405 0.417412 6.20328C0.898898 5.03609 1.64228 4.00646 2.57968 3.18289L2.87033 2.92753L2.59676 2.65396L1.26566 1.32286L1.67921 0.912546L13.2965 12.5299ZM9.81869 6.17649L8.03258 4.39038C8.50372 4.39742 8.95406 4.58764 9.28775 4.92132C9.62143 5.25501 9.81165 5.70535 9.81869 6.17649Z" stroke="url(#paint0_linear_325_20263)" stroke-width="0.725372"/>
<defs>
<linearGradient id="paint0_linear_325_20263" x1="0.0263672" y1="0.400635" x2="15.9846" y2="0.400635" gradientUnits="userSpaceOnUse">
<stop stop-color="#C19B61"/>
<stop offset="0.502893" stop-color="#B48650"/>
<stop offset="1" stop-color="#9C5F30"/>
</linearGradient>
</defs>
</svg>
