<svg width="17" height="19" viewBox="0 0 17 19" fill="none" xmlns="http://www.w3.org/2000/svg">
<path d="M2.125 19C1.54062 19 1.04054 18.7876 0.62475 18.3627C0.20825 17.9371 0 17.4257 0 16.8286V7.05714C0 6.71333 0.0754373 6.38762 0.226312 6.08C0.376479 5.77238 0.584375 5.51905 0.85 5.32L7.225 0.434286C7.41979 0.289524 7.62344 0.180952 7.83594 0.108571C8.04844 0.0361904 8.26979 0 8.5 0C8.73021 0 8.95156 0.0361904 9.16406 0.108571C9.37656 0.180952 9.58021 0.289524 9.775 0.434286L16.15 5.32C16.4156 5.51905 16.6239 5.77238 16.7747 6.08C16.9249 6.38762 17 6.71333 17 7.05714V16.8286C17 17.4257 16.7921 17.9371 16.3763 18.3627C15.9598 18.7876 15.4594 19 14.875 19H10.625V11.4H6.375V19H2.125Z" fill="url(#paint0_linear_442_24141)"/>
<defs>
<linearGradient id="paint0_linear_442_24141" x1="0" y1="0" x2="17" y2="1.09906e-08" gradientUnits="userSpaceOnUse">
<stop stop-color="#C19B61"/>
<stop offset="0.502893" stop-color="#B48650"/>
<stop offset="1" stop-color="#9C5F30"/>
</linearGradient>
</defs>
</svg>
