<svg width="183" height="183" viewBox="0 0 183 183" fill="none" xmlns="http://www.w3.org/2000/svg">
<path d="M106.819 2.17892L106.826 2.17894C107.387 2.18092 107.943 2.27976 108.47 2.47136C111.041 3.41086 113.009 6.23194 113.993 10.1978C114.961 14.1006 114.799 18.4987 113.696 21.6513L113.696 21.6514C112.815 24.1735 111.067 27.0398 108.806 29.5909C106.543 32.1449 103.892 34.2407 101.303 35.3617L99.431 36.1723L100.117 38.0934L101.167 41.0354L101.454 41.8388L102.21 42.2338C108.325 45.4293 114.791 48.3824 121.543 48.9228L122.412 48.9923L123.089 48.4426C127.77 44.6438 131.051 40.8483 133.941 37.1165C134.942 35.8239 135.876 34.5682 136.795 33.3317C138.163 31.4911 139.5 29.693 140.98 27.8796L145.011 31.2489C143.565 33.0396 142.18 34.8463 140.817 36.6367C140.597 36.9247 140.379 37.2121 140.16 37.4989C138.587 39.5676 137.035 41.6074 135.415 43.6164C131.873 48.0066 128.062 52.1711 123.244 55.8548C117.077 55.8142 110.616 54.5553 103.859 52.0713L99.5956 50.5043L101.042 54.8098C104.095 63.8997 104.1 71.2285 101.648 80.3838L100.176 85.8785L104.942 82.7726C112.191 78.0476 119.91 74.3832 128.085 71.7415C140.358 79.8355 151.315 91.6915 156.2 101.338L150.041 107.135C149.538 106.265 149.034 105.371 148.517 104.454C148.202 103.894 147.882 103.326 147.554 102.749C146.224 100.411 144.789 97.9839 143.131 95.6926C139.801 91.0893 135.488 86.9208 129.059 84.9099L128.239 84.6535L127.465 85.0256C104.198 96.208 93.3615 104.043 72.9771 118.78C72.0435 119.455 71.0899 120.145 70.1142 120.85C59.929 126.721 46.0236 128.57 30.8757 130.584C30.8323 130.59 30.7889 130.596 30.7454 130.602L27.7224 123.783C29.258 123.576 30.8246 123.378 32.4024 123.18C36.288 122.691 40.2413 122.193 43.9672 121.506C50.2756 120.343 56.4735 118.565 61.9138 115.105L62.3307 114.839L62.5924 114.42C69.7461 102.964 74.948 93.9517 78.388 84.4074C81.8436 74.8198 83.4872 64.7982 83.6948 51.3139L83.7172 49.863L82.387 49.2832C80.9508 48.6572 79.5599 47.8851 78.09 47.0419C77.8775 46.92 77.6628 46.7962 77.446 46.6713C76.1923 45.9488 74.868 45.1856 73.4974 44.503C70.2245 42.8727 66.4975 41.599 61.8328 41.94C56.1934 42.3518 51.3769 44.4528 46.9635 46.8498C45.2794 47.7645 43.7008 48.691 42.1595 49.5956C40.1552 50.772 38.2139 51.9114 36.1858 52.9395L33.2926 46.5661C34.2194 46.0952 35.1419 45.6234 36.0611 45.1532C44.4094 40.8832 52.4896 36.7504 61.1524 34.6314C64.0296 34.2298 69.1749 34.8172 74.1265 35.7839C76.5742 36.2617 78.8773 36.8126 80.6873 37.3283C81.5937 37.5866 82.3559 37.8302 82.9408 38.045C83.2331 38.1524 83.4654 38.2468 83.6407 38.3263C83.8279 38.4111 83.899 38.456 83.8977 38.4551L84.9283 39.1425L86.0461 38.6082L91.2862 36.1035L93.3506 35.1167L92.2638 33.1031C90.986 30.7359 90.6998 27.1735 91.2428 23.1957C91.7772 19.2814 93.0662 15.3252 94.5306 12.4292C95.7241 10.0692 97.7066 7.42249 100.02 5.39553C102.377 3.32958 104.777 2.16519 106.819 2.17892ZM52.4139 180.821H2.17857V142.68H52.4139V180.821ZM180.821 180.821H130.586V142.68H180.821V180.821Z" stroke="url(#paint0_linear_276_12510)" stroke-width="4.35714"/>
<defs>
<linearGradient id="paint0_linear_276_12510" x1="0" y1="0" x2="183" y2="1.3223e-07" gradientUnits="userSpaceOnUse">
<stop stop-color="#C19B61"/>
<stop offset="0.502893" stop-color="#B48650"/>
<stop offset="1" stop-color="#9C5F30"/>
</linearGradient>
</defs>
</svg>
