<svg width="23" height="18" viewBox="0 0 23 18" fill="none" xmlns="http://www.w3.org/2000/svg">
<path d="M9.92207 14.1904C9.92207 13.3654 10.5912 12.6963 11.4163 12.6963C12.2413 12.6963 12.9104 13.3654 12.9104 14.1904C12.9104 15.0155 12.2413 15.6836 11.4163 15.6836C10.5912 15.6836 9.92207 15.0155 9.92207 14.1904ZM14.4036 14.1904C14.4036 12.5404 13.0663 11.2031 11.4163 11.2031C9.76621 11.2031 8.42893 12.5404 8.42893 14.1904C8.42893 15.8405 9.76621 17.1778 11.4163 17.1778C13.0663 17.1778 14.4036 15.8405 14.4036 14.1904Z" fill="url(#paint0_linear_226_38695)"/>
<path d="M17.4231 11.1709C16.3175 8.97436 14.043 7.46875 11.4163 7.46875C8.78949 7.46875 6.51497 8.9754 5.4094 11.1709L6.53991 12.3015C7.29739 10.348 9.19472 8.96189 11.4163 8.96189C13.6378 8.96189 15.5351 10.348 16.2926 12.3015L17.4231 11.1709Z" fill="url(#paint1_linear_226_38695)"/>
<path d="M20.1517 8.44239C18.2814 5.60574 15.0675 3.73438 11.4163 3.73438C7.76497 3.73438 4.55114 5.60677 2.68082 8.44239L3.76352 9.52406C5.33771 6.94821 8.17644 5.22855 11.4163 5.22855C14.6571 5.22855 17.4958 6.94821 19.07 9.5251L20.1517 8.44239Z" fill="url(#paint2_linear_226_38695)"/>
<path d="M22.8325 5.76163C20.2483 2.26725 16.0962 0 11.4162 0C6.73627 0 2.58416 2.26725 0 5.76163L1.07024 6.82979C3.37177 3.60037 7.14775 1.49418 11.4162 1.49418C15.6847 1.49418 19.4617 3.60037 21.7633 6.83083L22.8325 5.76163Z" fill="url(#paint3_linear_226_38695)"/>
<defs>
<linearGradient id="paint0_linear_226_38695" x1="8.42893" y1="11.2031" x2="14.4036" y2="11.2031" gradientUnits="userSpaceOnUse">
<stop stop-color="#C19B61"/>
<stop offset="0.502893" stop-color="#B48650"/>
<stop offset="1" stop-color="#9C5F30"/>
</linearGradient>
<linearGradient id="paint1_linear_226_38695" x1="5.4094" y1="7.46875" x2="17.4231" y2="7.46875" gradientUnits="userSpaceOnUse">
<stop stop-color="#C19B61"/>
<stop offset="0.502893" stop-color="#B48650"/>
<stop offset="1" stop-color="#9C5F30"/>
</linearGradient>
<linearGradient id="paint2_linear_226_38695" x1="2.68082" y1="3.73438" x2="20.1517" y2="3.73438" gradientUnits="userSpaceOnUse">
<stop stop-color="#C19B61"/>
<stop offset="0.502893" stop-color="#B48650"/>
<stop offset="1" stop-color="#9C5F30"/>
</linearGradient>
<linearGradient id="paint3_linear_226_38695" x1="0" y1="0" x2="22.8325" y2="5.51456e-08" gradientUnits="userSpaceOnUse">
<stop stop-color="#C19B61"/>
<stop offset="0.502893" stop-color="#B48650"/>
<stop offset="1" stop-color="#9C5F30"/>
</linearGradient>
</defs>
</svg>
