<svg width="184" height="196" viewBox="0 0 184 196" fill="none" xmlns="http://www.w3.org/2000/svg">
<path d="M21.5536 114.303L21.5518 114.307L3.87885 149.643C3.24429 150.911 2.94466 152.322 3.00841 153.739C3.07216 155.156 3.49718 156.534 4.2431 157.74C4.98903 158.947 6.03109 159.943 7.27029 160.634C8.5095 161.325 9.90473 161.687 11.3235 161.687H11.3239H172.676H172.677C174.095 161.687 175.491 161.325 176.73 160.634C177.969 159.943 179.011 158.947 179.757 157.74C180.503 156.534 180.928 155.156 180.992 153.739C181.055 152.322 180.756 150.911 180.121 149.643L180.121 149.642L162.46 114.309L21.5536 114.303ZM21.5536 114.303C22.4731 112.459 22.9509 110.425 22.9494 108.364C22.9494 108.364 22.9494 108.364 22.9494 108.364C22.9494 108.363 22.9494 108.362 22.9494 108.361L22.9494 72.0506C22.9494 53.7372 30.2244 36.174 43.1739 23.2245C56.1234 10.275 73.6866 3 92 3C110.313 3 127.877 10.275 140.826 23.2245C153.776 36.174 161.051 53.7372 161.051 72.0506V108.364V108.367M21.5536 114.303L161.051 108.367M161.051 108.367C161.053 110.429 161.535 112.463 162.458 114.306L161.051 108.367ZM92.0009 192.566H91.9991C86.2316 192.568 80.6053 190.781 75.8953 187.452C72.3845 184.971 69.5115 181.724 67.4793 177.98H116.521C114.489 181.724 111.616 184.971 108.105 187.452C103.395 190.781 97.7684 192.568 92.0009 192.566Z" stroke="url(#paint0_linear_276_12666)" stroke-width="6"/>
<defs>
<linearGradient id="paint0_linear_276_12666" x1="0" y1="0" x2="184" y2="1.2509e-07" gradientUnits="userSpaceOnUse">
<stop stop-color="#C19B61"/>
<stop offset="0.502893" stop-color="#B48650"/>
<stop offset="1" stop-color="#9C5F30"/>
</linearGradient>
</defs>
</svg>
