<svg width="24" height="32" viewBox="0 0 24 32" fill="none" xmlns="http://www.w3.org/2000/svg">
<path d="M11.5214 31.024C11.651 31.1365 11.8207 31.1993 11.9971 31.2C12.1734 31.2007 12.3437 31.1394 12.4744 31.0279C12.9445 30.6257 24 21.0854 24 11.2848C24 4.95603 18.7299 0 12 0C5.27012 0 0 4.95603 0 11.2848C0 20.9154 11.0513 30.615 11.5214 31.024ZM12 1.32763C18.0353 1.32763 22.5882 5.60789 22.5882 11.2848C22.5882 19.3794 14.1275 27.6637 12.0042 29.6153C9.88518 27.6412 1.41176 19.2479 1.41176 11.2848C1.41176 5.60789 5.96471 1.32763 12 1.32763Z" fill="url(#paint0_linear_305_16228)"/>
<defs>
<linearGradient id="paint0_linear_305_16228" x1="0" y1="0" x2="24" y2="1.33397e-08" gradientUnits="userSpaceOnUse">
<stop stop-color="#C19B61"/>
<stop offset="0.502893" stop-color="#B48650"/>
<stop offset="1" stop-color="#9C5F30"/>
</linearGradient>
</defs>
</svg>
