<svg width="17" height="21" viewBox="0 0 17 21" fill="none" xmlns="http://www.w3.org/2000/svg">
<path d="M10.8431 5.32117H15.0097H15.4615V5.77297V18.9159V18.9169H15.0097L10.8431 5.32117ZM10.8431 5.32117V1.15459V0.702796H10.3913H1.86582C1.54748 0.702796 1.2746 0.840138 1.05764 1.05598C0.840123 1.27237 0.701739 1.54582 0.702796 1.8655M10.8431 5.32117L0.702796 1.8655M0.702796 1.8655V1.86467H1.15459L0.702801 1.86662C0.702799 1.86625 0.702798 1.86588 0.702796 1.8655ZM0.702796 1.8655V18.918M0.702796 1.8655V18.918M0.702796 18.918C0.702796 19.2361 0.84058 19.5085 1.05598 19.725M0.702796 18.918L1.05598 19.725M1.05598 19.725C1.2724 19.9426 1.5459 20.081 1.86564 20.0799L1.05598 19.725ZM14.2991 20.3309H14.2985H1.86582C1.4461 20.3309 1.11966 20.1954 0.854046 19.9298C0.588324 19.6641 0.452472 19.3375 0.451798 18.9177V1.86467C0.451798 1.44622 0.587306 1.12021 0.8537 0.854391C1.12046 0.58821 1.44735 0.452472 1.86617 0.451798H10.7815L15.7125 5.38281V18.918C15.7125 19.3368 15.5772 19.6635 15.3111 19.9301C15.0457 20.1961 14.7193 20.3315 14.2991 20.3309ZM11.6714 16.0388V16.2898H4.49288V16.0388H11.6714ZM11.6714 11.4204V11.6714H4.49288V11.4204H11.6714Z" stroke="url(#paint0_linear_824_6469)" stroke-width="0.903595"/>
<defs>
<linearGradient id="paint0_linear_824_6469" x1="0" y1="0" x2="16.1643" y2="9.0843e-09" gradientUnits="userSpaceOnUse">
<stop stop-color="#C19B61"/>
<stop offset="0.502893" stop-color="#B48650"/>
<stop offset="1" stop-color="#9C5F30"/>
</linearGradient>
</defs>
</svg>
