<svg width="34" height="24" viewBox="0 0 34 24" fill="none" xmlns="http://www.w3.org/2000/svg">
<path d="M10.8535 12.1954C14.0868 12.1954 16.7073 9.64043 16.7073 6.48796C16.7073 3.33549 14.0868 0.780518 10.8535 0.780518C7.6202 0.780518 4.99971 3.33549 4.99971 6.48796C4.99971 9.64043 7.6202 12.1954 10.8535 12.1954ZM14.9512 13.6223H14.1874C13.1721 14.0771 12.0426 14.3357 10.8535 14.3357C9.66445 14.3357 8.53943 14.0771 7.51959 13.6223H6.75585C3.36248 13.6223 0.609375 16.3065 0.609375 19.6151V21.47C0.609375 22.6516 1.59263 23.6103 2.80454 23.6103H18.9025C20.1144 23.6103 21.0976 22.6516 21.0976 21.47V19.6151C21.0976 16.3065 18.3445 13.6223 14.9512 13.6223Z" fill="url(#paint0_linear_276_10903)"/>
<path d="M23.1465 12.1955C26.3798 12.1955 29.0003 9.64052 29.0003 6.48805C29.0003 3.33558 26.3798 0.780609 23.1465 0.780609C19.9132 0.780609 17.2927 3.33558 17.2927 6.48805C17.2927 9.64052 19.9132 12.1955 23.1465 12.1955ZM27.2441 13.6224H26.4804C25.4651 14.0772 24.3355 14.3358 23.1465 14.3358C21.9574 14.3358 20.8324 14.0772 19.8126 13.6224H19.0488C15.6555 13.6224 12.9023 16.3066 12.9023 19.6152V21.4701C12.9023 22.6517 13.8856 23.6104 15.0975 23.6104H31.1954C32.4073 23.6104 33.3906 22.6517 33.3906 21.4701V19.6152C33.3906 16.3066 30.6375 13.6224 27.2441 13.6224Z" fill="url(#paint1_linear_276_10903)"/>
<defs>
<linearGradient id="paint0_linear_276_10903" x1="0.609375" y1="0.780518" x2="21.0976" y2="0.780518" gradientUnits="userSpaceOnUse">
<stop stop-color="#C19B61"/>
<stop offset="0.502893" stop-color="#B48650"/>
<stop offset="1" stop-color="#9C5F30"/>
</linearGradient>
<linearGradient id="paint1_linear_276_10903" x1="12.9023" y1="0.780609" x2="33.3906" y2="0.780609" gradientUnits="userSpaceOnUse">
<stop stop-color="#C19B61"/>
<stop offset="0.502893" stop-color="#B48650"/>
<stop offset="1" stop-color="#9C5F30"/>
</linearGradient>
</defs>
</svg>
