<svg width="17" height="4" viewBox="0 0 17 4" fill="none" xmlns="http://www.w3.org/2000/svg">
<path d="M13.7299 1.86795C13.7299 2.09814 13.8214 2.3189 13.9841 2.48168C14.1469 2.64445 14.3677 2.73589 14.5979 2.73589C14.8281 2.73589 15.0488 2.64445 15.2116 2.48168C15.3744 2.3189 15.4658 2.09814 15.4658 1.86795C15.4658 1.63775 15.3744 1.41699 15.2116 1.25422C15.0488 1.09144 14.8281 1 14.5979 1C14.3677 1 14.1469 1.09144 13.9841 1.25422C13.8214 1.41699 13.7299 1.63775 13.7299 1.86795ZM7.365 1.86794C7.365 2.09814 7.45644 2.3189 7.61921 2.48167C7.78198 2.64445 8.00275 2.73589 8.23294 2.73589C8.46314 2.73589 8.6839 2.64445 8.84667 2.48167C9.00944 2.3189 9.10089 2.09814 9.10089 1.86794C9.10089 1.63775 9.00944 1.41699 8.84667 1.25422C8.6839 1.09144 8.46314 1 8.23294 1C8.00275 1 7.78198 1.09144 7.61921 1.25421C7.45644 1.41699 7.365 1.63775 7.365 1.86794ZM1.00007 1.86794C1.00007 2.09814 1.09151 2.3189 1.25428 2.48167C1.41705 2.64445 1.63782 2.73589 1.86801 2.73589C2.0982 2.73589 2.31897 2.64445 2.48174 2.48167C2.64451 2.3189 2.73596 2.09814 2.73596 1.86794C2.73596 1.63775 2.64451 1.41699 2.48174 1.25421C2.31897 1.09144 2.0982 0.999999 1.86801 0.999999C1.63782 0.999999 1.41705 1.09144 1.25428 1.25421C1.09151 1.41699 1.00007 1.63775 1.00007 1.86794Z" stroke="white" stroke-width="1.35616" stroke-linecap="round" stroke-linejoin="round"/>
</svg>
