<svg width="22" height="22" viewBox="0 0 22 22" fill="none" xmlns="http://www.w3.org/2000/svg">
<path fill-rule="evenodd" clip-rule="evenodd" d="M3.48943 5.68912C4.31455 4.86425 5.43351 4.40086 6.60023 4.40086C7.76696 4.40086 8.88591 4.86425 9.71103 5.68912L11.0002 6.97722L12.2894 5.68912C12.6953 5.26888 13.1808 4.93368 13.7177 4.70308C14.2545 4.47248 14.8318 4.3511 15.4161 4.34602C16.0003 4.34095 16.5797 4.45227 17.1204 4.67351C17.6612 4.89474 18.1524 5.22146 18.5656 5.63459C18.9787 6.04771 19.3054 6.53898 19.5267 7.07973C19.7479 7.62047 19.8592 8.19986 19.8541 8.78409C19.8491 9.36832 19.7277 9.94569 19.4971 10.4825C19.2665 11.0193 18.9313 11.5048 18.511 11.9107L11.0002 19.4226L3.48943 11.9107C2.66456 11.0856 2.20117 9.96665 2.20117 8.79992C2.20117 7.6332 2.66456 6.51425 3.48943 5.68912V5.68912Z" fill="white"/>
</svg>
