<svg width="83" height="83" viewBox="0 0 83 83" fill="none" xmlns="http://www.w3.org/2000/svg">
<circle cx="41.5" cy="41.5" r="41" stroke="url(#paint0_linear_428_21855)"/>
<path d="M32.7075 40.1433C37.7026 40.1433 41.751 36.1961 41.751 31.3259C41.751 26.4557 37.7026 22.5085 32.7075 22.5085C27.7124 22.5085 23.664 26.4557 23.664 31.3259C23.664 36.1961 27.7124 40.1433 32.7075 40.1433ZM39.0379 42.3477H37.858C36.2896 43.0503 34.5444 43.4499 32.7075 43.4499C30.8705 43.4499 29.1325 43.0503 27.5569 42.3477H26.377C21.1346 42.3477 16.8813 46.4946 16.8813 51.606V54.4716C16.8813 56.2971 18.4004 57.7782 20.2727 57.7782H45.1423C47.0146 57.7782 48.5336 56.2971 48.5336 54.4716V51.606C48.5336 46.4946 44.2803 42.3477 39.0379 42.3477Z" fill="url(#paint1_linear_428_21855)"/>
<path d="M51.6997 40.1436C56.6948 40.1436 60.7432 36.1964 60.7432 31.3261C60.7432 26.4559 56.6948 22.5087 51.6997 22.5087C46.7045 22.5087 42.6562 26.4559 42.6562 31.3261C42.6562 36.1964 46.7045 40.1436 51.6997 40.1436ZM58.0301 42.3479H56.8502C55.2817 43.0506 53.5366 43.4501 51.6997 43.4501C49.8627 43.4501 48.1247 43.0506 46.5491 42.3479H45.3692C40.1268 42.3479 35.8735 46.4949 35.8735 51.6062V54.4719C35.8735 56.2973 37.3926 57.7784 39.2648 57.7784H64.1345C66.0068 57.7784 67.5258 56.2973 67.5258 54.4719V51.6062C67.5258 46.4949 63.2725 42.3479 58.0301 42.3479Z" fill="url(#paint2_linear_428_21855)"/>
<defs>
<linearGradient id="paint0_linear_428_21855" x1="0" y1="0" x2="83" y2="5.99731e-08" gradientUnits="userSpaceOnUse">
<stop stop-color="#C19B61"/>
<stop offset="0.502893" stop-color="#B48650"/>
<stop offset="1" stop-color="#9C5F30"/>
</linearGradient>
<linearGradient id="paint1_linear_428_21855" x1="16.8813" y1="22.5085" x2="48.5336" y2="22.5085" gradientUnits="userSpaceOnUse">
<stop stop-color="#C19B61"/>
<stop offset="0.502893" stop-color="#B48650"/>
<stop offset="1" stop-color="#9C5F30"/>
</linearGradient>
<linearGradient id="paint2_linear_428_21855" x1="35.8735" y1="22.5087" x2="67.5258" y2="22.5087" gradientUnits="userSpaceOnUse">
<stop stop-color="#C19B61"/>
<stop offset="0.502893" stop-color="#B48650"/>
<stop offset="1" stop-color="#9C5F30"/>
</linearGradient>
</defs>
</svg>
