<svg width="16" height="15" viewBox="0 0 16 15" fill="none" xmlns="http://www.w3.org/2000/svg">
<path d="M13.3333 6.42857H12.2667V7.5H13.3333C13.7576 7.50043 14.1643 7.66989 14.4642 7.97119C14.7642 8.2725 14.9329 8.68103 14.9333 9.10714V11.25H16V9.10714C15.9992 8.397 15.7179 7.71619 15.218 7.21405C14.7181 6.7119 14.0403 6.42942 13.3333 6.42857ZM12.2667 1.07143C12.5831 1.07143 12.8925 1.16569 13.1556 1.34228C13.4187 1.51888 13.6238 1.76988 13.7449 2.06354C13.866 2.35721 13.8977 2.68035 13.8359 2.99211C13.7742 3.30386 13.6218 3.59023 13.398 3.81499C13.1743 4.03976 12.8892 4.19282 12.5788 4.25483C12.2684 4.31685 11.9467 4.28502 11.6544 4.16338C11.362 4.04174 11.1121 3.83575 10.9363 3.57145C10.7605 3.30716 10.6667 2.99643 10.6667 2.67857C10.6667 2.25233 10.8352 1.84355 11.1353 1.54215C11.4354 1.24075 11.8423 1.07143 12.2667 1.07143ZM12.2667 0C11.7393 0 11.2237 0.157095 10.7851 0.451421C10.3466 0.745746 10.0048 1.16408 9.80299 1.65353C9.60115 2.14297 9.54835 2.68154 9.65124 3.20113C9.75413 3.72073 10.0081 4.198 10.381 4.57261C10.754 4.94721 11.2291 5.20232 11.7464 5.30568C12.2637 5.40903 12.7999 5.35598 13.2872 5.15325C13.7744 4.95051 14.1909 4.60719 14.4839 4.16671C14.7769 3.72622 14.9333 3.20834 14.9333 2.67857C14.9333 1.96817 14.6524 1.28686 14.1523 0.784535C13.6522 0.282206 12.9739 0 12.2667 0ZM11.7333 15H10.6667V13.9286C10.6662 13.5025 10.4975 13.0939 10.1976 12.7926C9.8976 12.4913 9.49088 12.3219 9.06667 12.3214H6.93333C6.50912 12.3219 6.1024 12.4913 5.80243 12.7926C5.50246 13.0939 5.33376 13.5025 5.33333 13.9286V15H4.26667V13.9286C4.26751 13.2184 4.54874 12.5376 5.04865 12.0355C5.54856 11.5333 6.22635 11.2509 6.93333 11.25H9.06667C9.77365 11.2509 10.4514 11.5333 10.9514 12.0355C11.4513 12.5376 11.7325 13.2184 11.7333 13.9286V15ZM8 5.89286C8.31645 5.89286 8.62579 5.98711 8.88891 6.16371C9.15203 6.3403 9.35711 6.59131 9.47821 6.88497C9.59931 7.17864 9.63099 7.50178 9.56926 7.81354C9.50752 8.12529 9.35514 8.41166 9.13137 8.63642C8.90761 8.86118 8.62251 9.01425 8.31215 9.07626C8.00178 9.13827 7.68007 9.10645 7.38771 8.98481C7.09535 8.86317 6.84546 8.65717 6.66965 8.39288C6.49384 8.12859 6.4 7.81786 6.4 7.5C6.4 7.07376 6.56857 6.66498 6.86863 6.36358C7.16869 6.06218 7.57565 5.89286 8 5.89286ZM8 4.82143C7.47258 4.82143 6.95701 4.97852 6.51848 5.27285C6.07995 5.56717 5.73815 5.98551 5.53632 6.47496C5.33449 6.9644 5.28168 7.50297 5.38457 8.02256C5.48747 8.54216 5.74144 9.01943 6.11438 9.39404C6.48732 9.76864 6.96248 10.0238 7.47976 10.1271C7.99704 10.2305 8.53322 10.1774 9.02049 9.97468C9.50776 9.77194 9.92424 9.42862 10.2173 8.98813C10.5103 8.54765 10.6667 8.02977 10.6667 7.5C10.6667 6.7896 10.3857 6.10829 9.88562 5.60596C9.38552 5.10363 8.70724 4.82143 8 4.82143ZM3.73333 6.42857H2.66667C1.95968 6.42942 1.2819 6.7119 0.781984 7.21405C0.28207 7.71619 0.000846857 8.397 0 9.10714V11.25H1.06667V9.10714C1.06709 8.68103 1.2358 8.2725 1.53576 7.97119C1.83573 7.66989 2.24245 7.50043 2.66667 7.5H3.73333V6.42857ZM3.73333 1.07143C4.04978 1.07143 4.35913 1.16569 4.62225 1.34228C4.88536 1.51888 5.09044 1.76988 5.21154 2.06354C5.33264 2.35721 5.36433 2.68035 5.30259 2.99211C5.24085 3.30386 5.08847 3.59023 4.8647 3.81499C4.64094 4.03976 4.35585 4.19282 4.04548 4.25483C3.73511 4.31685 3.4134 4.28502 3.12104 4.16338C2.82868 4.04174 2.57879 3.83575 2.40298 3.57145C2.22717 3.30716 2.13333 2.99643 2.13333 2.67857C2.13333 2.25233 2.3019 1.84355 2.60196 1.54215C2.90202 1.24075 3.30899 1.07143 3.73333 1.07143ZM3.73333 0C3.20592 0 2.69034 0.157095 2.25181 0.451421C1.81328 0.745746 1.47149 1.16408 1.26965 1.65353C1.06782 2.14297 1.01501 2.68154 1.11791 3.20113C1.2208 3.72073 1.47478 4.198 1.84772 4.57261C2.22066 4.94721 2.69581 5.20232 3.21309 5.30568C3.73038 5.40903 4.26655 5.35598 4.75382 5.15325C5.24109 4.95051 5.65757 4.60719 5.95059 4.16671C6.2436 3.72622 6.4 3.20834 6.4 2.67857C6.4 1.96817 6.11905 1.28686 5.61895 0.784535C5.11885 0.282206 4.44058 0 3.73333 0Z" fill="url(#paint0_linear_442_22828)"/>
<defs>
<linearGradient id="paint0_linear_442_22828" x1="0" y1="0" x2="16" y2="1.23318e-08" gradientUnits="userSpaceOnUse">
<stop stop-color="#C19B61"/>
<stop offset="0.502893" stop-color="#B48650"/>
<stop offset="1" stop-color="#9C5F30"/>
</linearGradient>
</defs>
</svg>
