<svg width="13" height="38" viewBox="0 0 13 38" fill="none" xmlns="http://www.w3.org/2000/svg">
<path d="M0.0674356 7.53701C-0.0665406 6.60137 -0.000383383 5.64745 0.261416 4.74002C0.523215 3.83259 0.974528 2.9929 1.58471 2.27795C2.1949 1.563 2.94966 0.989531 3.79778 0.596481C4.64589 0.20343 5.56749 0 6.5 0C7.43251 0 8.35411 0.20343 9.20222 0.596481C10.0503 0.989531 10.8051 1.563 11.4153 2.27795C12.0255 2.9929 12.4768 3.83259 12.7386 4.74002C13.0004 5.64745 13.0665 6.60137 12.9326 7.53701L10.7746 22.8445C10.6253 23.8859 10.1111 24.8379 9.32612 25.5264C8.54116 26.2149 7.53793 26.5938 6.5 26.5938C5.46207 26.5938 4.45884 26.2149 3.67388 25.5264C2.88892 24.8379 2.37472 23.8859 2.22536 22.8445L0.0674356 7.53701ZM10.2464 34.2016C10.2464 35.209 9.85169 36.1751 9.1491 36.8875C8.44652 37.5998 7.49361 38 6.5 38C5.50639 38 4.55348 37.5998 3.8509 36.8875C3.14831 36.1751 2.7536 35.209 2.7536 34.2016C2.7536 33.1942 3.14831 32.2281 3.8509 31.5158C4.55348 30.8034 5.50639 30.4032 6.5 30.4032C7.49361 30.4032 8.44652 30.8034 9.1491 31.5158C9.85169 32.2281 10.2464 33.1942 10.2464 34.2016Z" fill="url(#paint0_linear_432_22092)"/>
<defs>
<linearGradient id="paint0_linear_432_22092" x1="0" y1="0" x2="13" y2="3.21353e-09" gradientUnits="userSpaceOnUse">
<stop stop-color="#C19B61"/>
<stop offset="0.502893" stop-color="#B48650"/>
<stop offset="1" stop-color="#9C5F30"/>
</linearGradient>
</defs>
</svg>
