<svg width="27" height="26" viewBox="0 0 27 26" fill="none" xmlns="http://www.w3.org/2000/svg">
<path d="M20.331 15.0538C17.82 15.0538 15.714 16.8736 15.174 19.2955C13.8915 18.7345 12.717 18.885 11.826 19.2818C11.2725 16.8463 9.1665 15.0538 6.669 15.0538C3.7395 15.0538 1.35 17.503 1.35 20.5269C1.35 23.5508 3.7395 26 6.669 26C9.45 26 11.718 23.7834 11.934 20.9648C12.393 20.6364 13.5945 20.0207 15.066 20.9921C15.309 23.7971 17.55 26 20.331 26C23.2605 26 25.65 23.5508 25.65 20.5269C25.65 17.503 23.2605 15.0538 20.331 15.0538ZM6.669 24.4402C4.563 24.4402 2.8755 22.6888 2.8755 20.5269C2.8755 18.365 4.5765 16.6137 6.669 16.6137C8.775 16.6137 10.4625 18.365 10.4625 20.5269C10.4625 22.6888 8.775 24.4402 6.669 24.4402ZM20.331 24.4402C18.225 24.4402 16.5375 22.6888 16.5375 20.5269C16.5375 18.365 18.225 16.6137 20.331 16.6137C22.437 16.6137 24.138 18.365 24.138 20.5269C24.138 22.6888 22.4235 24.4402 20.331 24.4402ZM27 11.6331H0V13.6856H27V11.6331ZM18.2655 0.864843C17.9685 0.19439 17.2125 -0.161361 16.497 0.071245L13.5 1.08377L10.4895 0.071245L10.422 0.0575623C9.7065 -0.147679 8.9505 0.235438 8.6805 0.933257L5.4 9.58074H21.6L18.306 0.933257L18.2655 0.864843Z" fill="url(#paint0_linear_372_20430)"/>
<defs>
<linearGradient id="paint0_linear_372_20430" x1="0" y1="0" x2="27" y2="2.02597e-08" gradientUnits="userSpaceOnUse">
<stop stop-color="#C19B61"/>
<stop offset="0.502893" stop-color="#B48650"/>
<stop offset="1" stop-color="#9C5F30"/>
</linearGradient>
</defs>
</svg>
