<svg width="16" height="13" viewBox="0 0 16 13" fill="none" xmlns="http://www.w3.org/2000/svg">
<path d="M10.8469 12.0777V10.8469C10.8469 10.194 10.5875 9.56782 10.1258 9.10616C9.66418 8.6445 9.03803 8.38514 8.38514 8.38514H3.46171C2.80883 8.38514 2.18268 8.6445 1.72102 9.10616C1.25936 9.56782 1 10.194 1 10.8469V12.0777M14.5394 12.0777V10.8469C14.539 10.3014 14.3575 9.77156 14.0233 9.34048C13.6891 8.9094 13.2213 8.60151 12.6931 8.46515M10.2314 1.08001C10.761 1.21559 11.2303 1.52355 11.5655 1.95534C11.9006 2.38713 12.0825 2.91819 12.0825 3.46479C12.0825 4.0114 11.9006 4.54245 11.5655 4.97425C11.2303 5.40604 10.761 5.714 10.2314 5.84958M8.38514 3.46171C8.38514 4.82128 7.283 5.92343 5.92343 5.92343C4.56386 5.92343 3.46171 4.82128 3.46171 3.46171C3.46171 2.10215 4.56386 1 5.92343 1C7.283 1 8.38514 2.10215 8.38514 3.46171Z" stroke="url(#paint0_linear_322_19315)" stroke-width="1.10777" stroke-linecap="round" stroke-linejoin="round"/>
<defs>
<linearGradient id="paint0_linear_322_19315" x1="1" y1="1" x2="14.5394" y2="1" gradientUnits="userSpaceOnUse">
<stop stop-color="#C19B61"/>
<stop offset="0.502893" stop-color="#B48650"/>
<stop offset="1" stop-color="#9C5F30"/>
</linearGradient>
</defs>
</svg>
