<svg width="19" height="18" viewBox="0 0 19 18" fill="none" xmlns="http://www.w3.org/2000/svg">
<path d="M17.3633 2.0709C16.902 1.60807 16.354 1.24084 15.7505 0.990272C15.1471 0.739702 14.5001 0.610718 13.8467 0.610718C13.1933 0.610718 12.5463 0.739702 11.9429 0.990272C11.3394 1.24084 10.7914 1.60807 10.3302 2.0709L9.62225 2.788L8.91435 2.0709C8.45312 1.60807 7.90507 1.24084 7.30162 0.990272C6.69817 0.739702 6.0512 0.610718 5.39779 0.610718C4.74439 0.610718 4.09741 0.739702 3.49396 0.990272C2.89051 1.24084 2.34246 1.60807 1.88124 2.0709C-0.0678061 4.01994 -0.187323 7.31125 2.26737 9.81191L9.62225 17.1668L16.9771 9.81191C19.4318 7.31125 19.3123 4.01994 17.3633 2.0709Z" fill="url(#paint0_linear_287_490)"/>
<defs>
<linearGradient id="paint0_linear_287_490" x1="0.421387" y1="0.610718" x2="18.8231" y2="0.610718" gradientUnits="userSpaceOnUse">
<stop stop-color="#C19B61"/>
<stop offset="0.502893" stop-color="#B48650"/>
<stop offset="1" stop-color="#9C5F30"/>
</linearGradient>
</defs>
</svg>
