<svg width="74" height="98" viewBox="0 0 74 98" fill="none" xmlns="http://www.w3.org/2000/svg">
<path d="M21.8292 0.0994728C26.8513 -0.604844 31.074 2.52242 33.0721 6.58712L37.9869 16.5889C40.7136 22.1391 39.1468 28.6516 35.0142 32.7485C32.5726 35.1665 30.1189 37.9292 28.6958 40.367C28.6011 40.5406 28.5717 40.7434 28.613 40.9374C29.9288 48.1939 34.7607 55.3635 39.0712 60.5045C39.2886 60.7488 39.5715 60.923 39.8851 61.0054C40.1986 61.0878 40.529 61.0749 40.8354 60.9683L50.5212 57.8882C53.1303 57.0582 55.9321 57.1006 58.5158 58.0093C61.0994 58.9179 63.3292 60.645 64.8782 62.9374L71.8885 73.3162C73.7892 76.1309 74.7516 79.9501 73.2945 83.623C71.9933 86.904 69.4762 91.6358 64.8977 94.7829C60.1461 98.0466 53.6378 99.2866 45.1215 96.3156C35.6063 92.9924 26.6173 84.6596 19.1635 74.0031C11.6658 63.2796 5.49369 49.8852 1.75094 35.9179C-1.78713 22.7318 0.347411 13.8535 5.37186 8.13711C10.2184 2.62162 17.163 0.75171 21.8292 0.0994728ZM27.6212 9.35975C26.5077 7.09552 24.5218 5.97704 22.6577 6.23744C18.5129 6.81776 13.3228 8.38759 9.91384 12.2688C6.6828 15.9466 4.44592 22.4243 7.62336 34.2861C11.1931 47.5987 17.0704 60.321 24.1246 70.4071C31.2227 80.5577 39.2881 87.7249 47.0952 90.4504C54.052 92.8783 58.5233 91.678 61.4863 89.6444C64.6199 87.4893 66.5473 84.0644 67.6438 81.3017C68.1458 80.0369 67.9289 78.4001 66.8665 76.8278L59.8562 66.4516C59.045 65.2507 57.8772 64.3459 56.524 63.8697C55.1708 63.3935 53.7033 63.3709 52.3366 63.8054L42.6507 66.8855C39.7559 67.8056 36.4957 66.9848 34.4367 64.5296C29.9507 59.1802 24.2343 50.9764 22.6187 42.0609C22.3101 40.39 22.608 38.6619 23.457 37.1976C25.304 34.0381 28.228 30.8166 30.7597 28.3069C33.2329 25.8566 33.9347 22.211 32.536 19.3615L27.6212 9.35975Z" fill="url(#paint0_linear_276_11063)"/>
<defs>
<linearGradient id="paint0_linear_276_11063" x1="0" y1="0" x2="74" y2="4.03753e-08" gradientUnits="userSpaceOnUse">
<stop stop-color="#C19B61"/>
<stop offset="0.502893" stop-color="#B48650"/>
<stop offset="1" stop-color="#9C5F30"/>
</linearGradient>
</defs>
</svg>
