<svg width="17" height="19" viewBox="0 0 17 19" fill="none" xmlns="http://www.w3.org/2000/svg">
<path d="M1.80774 11.2949L2.25899 11.2944V10.8431V7.22876C2.25899 6.8527 2.38771 6.54216 2.6577 6.27263L2.3385 5.95289L2.6577 6.27263C2.92804 6.00274 3.23897 5.87391 3.61457 5.87337C3.61469 5.87337 3.61481 5.87337 3.61493 5.87337L7.22876 5.87337H7.68056V5.42157V4.11136V3.86956L7.47937 3.73544C7.2561 3.58659 7.08284 3.41152 6.95297 3.21081C6.8428 3.04055 6.77696 2.8208 6.77696 2.53007C6.77696 2.36616 6.80942 2.20235 6.87826 2.03576C6.94407 1.87648 7.04449 1.72634 7.18626 1.58504L7.18679 1.5845L8.13236 0.638938L9.07792 1.5845L9.39029 1.27213L9.07792 1.5845C9.2202 1.72678 9.32079 1.87728 9.38662 2.03616C9.45524 2.20175 9.48775 2.36541 9.48775 2.53007C9.48775 2.8208 9.42191 3.04055 9.31174 3.21081C9.18187 3.41152 9.00862 3.58659 8.78534 3.73544L8.58415 3.86956V4.11136V5.42157V5.87337H9.03595H12.6503C13.0267 5.87337 13.3377 6.002 13.6079 6.27172C13.8777 6.54101 14.0062 6.85157 14.0057 7.22821V7.22876V10.8431V11.2949H14.4575C14.8336 11.2949 15.1446 11.4237 15.4148 11.6939C15.6851 11.9641 15.8134 12.2747 15.8129 12.6498V12.6503V17.1683C15.8129 17.3103 15.7698 17.4084 15.685 17.4931C15.6003 17.5778 15.5029 17.6204 15.3622 17.6201H15.3611H0.903595C0.761609 17.6201 0.664188 17.577 0.58026 17.4928C0.495521 17.4077 0.452226 17.3094 0.451798 17.1677V12.6503C0.451798 12.2743 0.580519 11.9637 0.850511 11.6942C1.12094 11.4242 1.43198 11.2954 1.80774 11.2949ZM3.16258 10.8431V11.2949H3.61438H12.6503H13.1021V10.8431V7.22876V6.77696H12.6503H3.61438H3.16258V7.22876V10.8431ZM1.35539 16.2647V16.7165H1.80719H14.4575H14.9093V16.2647V12.6503V12.1985H14.4575H1.80719H1.35539V12.6503V16.2647Z" stroke="url(#paint0_linear_824_6489)" stroke-width="0.903595"/>
<defs>
<linearGradient id="paint0_linear_824_6489" x1="0" y1="0" x2="16.2647" y2="1.05771e-08" gradientUnits="userSpaceOnUse">
<stop stop-color="#C19B61"/>
<stop offset="0.502893" stop-color="#B48650"/>
<stop offset="1" stop-color="#9C5F30"/>
</linearGradient>
</defs>
</svg>
