<svg width="203" height="159" viewBox="0 0 203 159" fill="none" xmlns="http://www.w3.org/2000/svg">
<path d="M45.7431 158.085C45.7877 158.115 45.8471 158.1 45.8916 158.13C46.2423 158.325 46.6344 158.433 47.0354 158.447C47.2563 158.446 47.4761 158.416 47.689 158.357L101.501 143.671L155.314 158.357C155.526 158.416 155.746 158.446 155.967 158.447C156.367 158.435 156.759 158.324 157.106 158.125C157.155 158.1 157.21 158.11 157.254 158.08L201.817 130.847C202.278 130.565 202.633 130.139 202.83 129.636C203.026 129.133 203.053 128.579 202.907 128.06L178.229 41.4094C178.128 41.0485 177.946 40.7153 177.697 40.435C177.449 40.1548 177.139 39.9347 176.793 39.7916C176.447 39.6485 176.072 39.5861 175.698 39.609C175.324 39.6319 174.96 39.7396 174.634 39.9239L150.065 53.7087C149.527 54.0484 149.14 54.5819 148.984 55.1988C148.828 55.8158 148.916 56.469 149.228 57.0235C149.54 57.578 150.053 57.9912 150.662 58.1779C151.27 58.3646 151.927 58.3103 152.496 58.0264L174.327 45.7716L197.633 127.599L157.948 151.856L148.52 76.4408C148.439 75.7888 148.102 75.1958 147.583 74.7924C147.064 74.3889 146.407 74.208 145.755 74.2894C145.103 74.3708 144.51 74.7079 144.106 75.2265C143.703 75.7451 143.522 76.4028 143.603 77.0548L153.046 152.609L103.977 139.215V125.698C103.977 125.041 103.716 124.411 103.252 123.947C102.788 123.483 102.158 123.222 101.501 123.222C100.845 123.222 100.215 123.483 99.7507 123.947C99.2864 124.411 99.0256 125.041 99.0256 125.698V139.215L49.9518 152.609L59.3942 77.0548C59.4345 76.7319 59.4109 76.4043 59.3246 76.0906C59.2383 75.7769 59.091 75.4833 58.8912 75.2265C58.6915 74.9697 58.4431 74.7548 58.1602 74.594C57.8774 74.4332 57.5657 74.3297 57.2428 74.2894C56.92 74.2491 56.5924 74.2728 56.2787 74.3591C55.965 74.4454 55.6713 74.5926 55.4146 74.7924C55.1578 74.9922 54.9428 75.2406 54.7821 75.5234C54.6213 75.8062 54.5178 76.118 54.4774 76.4408L45.0549 151.856L5.36905 127.604L28.6755 45.7815L50.5064 58.0363C51.0758 58.3202 51.7326 58.3745 52.341 58.1878C52.9493 58.0011 53.4626 57.5879 53.7748 57.0334C54.087 56.4789 54.1742 55.8257 54.0184 55.2087C53.8626 54.5918 53.4756 54.0583 52.9375 53.7187L28.3635 39.9289C28.0381 39.7425 27.6742 39.6332 27.2999 39.6093C26.9256 39.5853 26.5508 39.6474 26.2042 39.7909C25.8576 39.9343 25.5485 40.1552 25.3005 40.4366C25.0526 40.718 24.8724 41.0525 24.7738 41.4143L0.0957697 128.065C-0.0534887 128.584 -0.0277147 129.139 0.169122 129.643C0.365959 130.146 0.722941 130.571 1.18509 130.852L45.7431 158.085Z" fill="url(#paint0_linear_276_11823)"/>
<path d="M99.8225 115.705C100.277 116.125 100.872 116.359 101.491 116.362C102.109 116.365 102.707 116.136 103.165 115.72C104.814 114.22 143.588 78.6388 143.588 42.0872C143.588 18.4837 125.105 0 101.501 0C77.8975 0 59.4138 18.4837 59.4138 42.0872C59.4138 78.005 98.1737 114.18 99.8225 115.705ZM101.501 4.95144C122.668 4.95144 138.637 20.9149 138.637 42.0872C138.637 72.2762 108.963 103.173 101.516 110.452C94.0838 103.089 64.3653 71.786 64.3653 42.0872C64.3653 20.9149 80.3337 4.95144 101.501 4.95144Z" fill="url(#paint1_linear_276_11823)"/>
<path d="M123.782 42.0874C123.782 29.8029 113.785 19.8059 101.501 19.8059C89.2164 19.8059 79.2195 29.8029 79.2195 42.0874C79.2195 54.3719 89.2164 64.3689 101.501 64.3689C113.785 64.3689 123.782 54.3719 123.782 42.0874ZM101.501 59.4174C91.9447 59.4174 84.1709 51.6437 84.1709 42.0874C84.1709 32.5311 91.9447 24.7573 101.501 24.7573C111.057 24.7573 118.831 32.5311 118.831 42.0874C118.831 51.6437 111.057 59.4174 101.501 59.4174Z" fill="url(#paint2_linear_276_11823)"/>
<defs>
<linearGradient id="paint0_linear_276_11823" x1="0" y1="39.6042" x2="203" y2="39.6042" gradientUnits="userSpaceOnUse">
<stop stop-color="#C19B61"/>
<stop offset="0.502893" stop-color="#B48650"/>
<stop offset="1" stop-color="#9C5F30"/>
</linearGradient>
<linearGradient id="paint1_linear_276_11823" x1="59.4138" y1="0" x2="143.588" y2="4.39976e-08" gradientUnits="userSpaceOnUse">
<stop stop-color="#C19B61"/>
<stop offset="0.502893" stop-color="#B48650"/>
<stop offset="1" stop-color="#9C5F30"/>
</linearGradient>
<linearGradient id="paint2_linear_276_11823" x1="79.2195" y1="19.8059" x2="123.782" y2="19.8059" gradientUnits="userSpaceOnUse">
<stop stop-color="#C19B61"/>
<stop offset="0.502893" stop-color="#B48650"/>
<stop offset="1" stop-color="#9C5F30"/>
</linearGradient>
</defs>
</svg>
