<svg width="17" height="15" viewBox="0 0 17 15" fill="none" xmlns="http://www.w3.org/2000/svg">
<path d="M9.03265 14.2204L9.03264 14.2204L9.02764 14.2233C8.96381 14.2607 8.89138 14.2808 8.81744 14.2818C8.74393 14.2827 8.67142 14.2647 8.60694 14.2294C7.50604 13.6147 5.98717 12.4495 4.63963 11.1265C3.27599 9.78782 2.17591 8.37259 1.81037 7.27442L1.8043 7.25618L1.79704 7.23838C0.756485 4.6864 1.48156 2.95229 2.64604 2.0448C3.86699 1.09329 5.63314 0.97753 6.85135 1.80194L6.85167 1.80215C7.24286 2.06652 7.84888 2.52028 8.22466 2.8618C8.61607 3.21784 9.21245 3.16295 9.55381 2.82647C9.75512 2.62823 10.0179 2.42692 10.2967 2.21339C10.4004 2.13395 10.5063 2.05282 10.6121 1.96953C12.0694 0.824458 13.8408 1.03891 15.0472 2.05784C16.2421 3.06697 16.8827 4.87949 15.9429 6.967L15.9378 6.97849L15.9331 6.99019C14.5798 10.3798 11.0858 13.0469 9.03265 14.2204Z" stroke="url(#paint0_linear_824_6472)" stroke-width="1.16734"/>
<path d="M10.0958 1.88398C9.89797 2.0864 9.64338 2.17467 9.4143 2.16727C9.5914 2.01801 9.78671 1.8683 9.97421 1.72494C10.0047 1.70152 10.035 1.67834 10.065 1.6554C10.1292 1.60629 10.192 1.55826 10.252 1.51131C10.474 1.33674 10.7026 1.18939 10.9353 1.06779C10.7201 1.24935 10.5215 1.43642 10.34 1.62317C10.3399 1.62328 10.3398 1.62338 10.3397 1.62349C10.2648 1.70058 10.1928 1.77762 10.1238 1.8542L10.1237 1.85426C10.1147 1.86431 10.1055 1.8741 10.0961 1.88364C10.096 1.88375 10.0959 1.88387 10.0958 1.88398ZM10.6128 1.97012C10.8246 1.80361 11.0418 1.66642 11.2618 1.55632C11.0006 1.78078 10.7651 2.01444 10.5573 2.24499C10.3177 2.51085 9.98924 2.68256 9.65066 2.73538C9.83923 2.5643 10.0769 2.38114 10.3287 2.18861L10.3287 2.18861L10.3298 2.18778C10.3581 2.16604 10.3872 2.14378 10.4166 2.12129C10.4172 2.12082 10.4178 2.12034 10.4185 2.11987C10.4185 2.11986 10.4185 2.11986 10.4185 2.11985C10.4834 2.07022 10.5496 2.01957 10.6114 1.97121L10.6114 1.97122L10.6128 1.97012Z" stroke="url(#paint1_linear_824_6472)" stroke-width="1.16734"/>
<defs>
<linearGradient id="paint0_linear_824_6472" x1="0.712891" y1="0.61438" x2="16.9776" y2="0.61438" gradientUnits="userSpaceOnUse">
<stop stop-color="#C19B61"/>
<stop offset="0.502893" stop-color="#B48650"/>
<stop offset="1" stop-color="#9C5F30"/>
</linearGradient>
<linearGradient id="paint1_linear_824_6472" x1="8.39014" y1="0.615967" x2="12.6731" y2="0.615967" gradientUnits="userSpaceOnUse">
<stop stop-color="#C19B61"/>
<stop offset="0.502893" stop-color="#B48650"/>
<stop offset="1" stop-color="#9C5F30"/>
</linearGradient>
</defs>
</svg>
