<svg width="21" height="24" viewBox="0 0 21 24" fill="none" xmlns="http://www.w3.org/2000/svg">
<path d="M10.2441 12.1955C13.4774 12.1955 16.0979 9.64052 16.0979 6.48805C16.0979 3.33558 13.4774 0.780609 10.2441 0.780609C7.01082 0.780609 4.39034 3.33558 4.39034 6.48805C4.39034 9.64052 7.01082 12.1955 10.2441 12.1955ZM14.3418 13.6224H13.578C12.5628 14.0772 11.4332 14.3358 10.2441 14.3358C9.05508 14.3358 7.93005 14.0772 6.91021 13.6224H6.14647C2.75311 13.6224 0 16.3066 0 19.6152V21.4701C0 22.6517 0.983253 23.6104 2.19517 23.6104H18.2931C19.505 23.6104 20.4883 22.6517 20.4883 21.4701V19.6152C20.4883 16.3066 17.7351 13.6224 14.3418 13.6224Z" fill="url(#paint0_linear_276_10910)"/>
<defs>
<linearGradient id="paint0_linear_276_10910" x1="0" y1="0.780609" x2="20.4883" y2="0.780609" gradientUnits="userSpaceOnUse">
<stop stop-color="#C19B61"/>
<stop offset="0.502893" stop-color="#B48650"/>
<stop offset="1" stop-color="#9C5F30"/>
</linearGradient>
</defs>
</svg>
