<svg width="26" height="26" viewBox="0 0 26 26" fill="none" xmlns="http://www.w3.org/2000/svg">
<path d="M13 0.5C14.5913 0.5 16.1174 1.13214 17.2426 2.25736C18.3679 3.38258 19 4.9087 19 6.5C19 8.0913 18.3679 9.61742 17.2426 10.7426C16.1174 11.8679 14.5913 12.5 13 12.5C11.4087 12.5 9.88258 11.8679 8.75736 10.7426C7.63214 9.61742 7 8.0913 7 6.5C7 4.9087 7.63214 3.38258 8.75736 2.25736C9.88258 1.13214 11.4087 0.5 13 0.5ZM13 16.75C16.5305 16.75 19.7008 17.466 21.9698 18.6005C24.2687 19.7499 25.5 21.2457 25.5 22.75V25.5H0.5V22.75C0.5 21.2457 1.73131 19.7499 4.03017 18.6005C6.29925 17.466 9.46948 16.75 13 16.75Z" stroke="url(#paint0_linear_305_16227)"/>
<defs>
<linearGradient id="paint0_linear_305_16227" x1="0" y1="0" x2="26" y2="1.87868e-08" gradientUnits="userSpaceOnUse">
<stop stop-color="#C19B61"/>
<stop offset="0.502893" stop-color="#B48650"/>
<stop offset="1" stop-color="#9C5F30"/>
</linearGradient>
</defs>
</svg>
