<svg width="26" height="26" viewBox="0 0 26 26" fill="none" xmlns="http://www.w3.org/2000/svg">
<path d="M23.6364 18.9091V8.27273H7.09091V18.9091H23.6364ZM23.6364 2.36364C24.2632 2.36364 24.8644 2.61266 25.3077 3.05593C25.751 3.4992 26 4.1004 26 4.72727V18.9091C26 19.536 25.751 20.1372 25.3077 20.5804C24.8644 21.0237 24.2632 21.2727 23.6364 21.2727H7.09091C6.46403 21.2727 5.86283 21.0237 5.41957 20.5804C4.9763 20.1372 4.72727 19.536 4.72727 18.9091V4.72727C4.72727 4.1004 4.9763 3.4992 5.41957 3.05593C5.86283 2.61266 6.46403 2.36364 7.09091 2.36364H8.27273V0H10.6364V2.36364H20.0909V0H22.4545V2.36364H23.6364ZM2.36364 23.6364H18.9091V26H2.36364C1.73676 26 1.13556 25.751 0.692293 25.3077C0.249025 24.8644 0 24.2632 0 23.6364V9.45455H2.36364V23.6364ZM21.2727 16.5455H16.5455V11.8182H21.2727V16.5455Z" fill="url(#paint0_linear_315_16819)"/>
<defs>
<linearGradient id="paint0_linear_315_16819" x1="0" y1="0" x2="26" y2="1.87868e-08" gradientUnits="userSpaceOnUse">
<stop stop-color="#C19B61"/>
<stop offset="0.502893" stop-color="#B48650"/>
<stop offset="1" stop-color="#9C5F30"/>
</linearGradient>
</defs>
</svg>
