<svg width="30" height="20" viewBox="0 0 30 20" fill="none" xmlns="http://www.w3.org/2000/svg">
<path d="M20 3.33333V16.6667H3.33333V3.33333H20ZM21.6667 0H1.66667C1.22464 0 0.800716 0.175595 0.488155 0.488156C0.175595 0.800716 0 1.22464 0 1.66667V18.3333C0 18.7754 0.175595 19.1993 0.488155 19.5118C0.800716 19.8244 1.22464 20 1.66667 20H21.6667C22.1087 20 22.5326 19.8244 22.8452 19.5118C23.1577 19.1993 23.3333 18.7754 23.3333 18.3333V12.5L30 19.1667V0.833333L23.3333 7.5V1.66667C23.3333 1.22464 23.1577 0.800716 22.8452 0.488156C22.5326 0.175595 22.1087 0 21.6667 0Z" fill="#D2D2D2"/>
</svg>
