<svg width="24" height="24" viewBox="0 0 24 24" fill="none" xmlns="http://www.w3.org/2000/svg">
<path d="M11.997 16.0889L7.33327 20.7526C6.76862 21.2976 6.01451 21.6021 5.22978 21.6021C4.44505 21.6021 3.69095 21.2976 3.1263 20.7526C2.84936 20.4768 2.62962 20.149 2.47969 19.788C2.32975 19.4271 2.25257 19.04 2.25257 18.6492C2.25257 18.2583 2.32975 17.8713 2.47969 17.5103C2.62962 17.1493 2.84936 16.8215 3.1263 16.5457L7.79002 11.8819C8.01636 11.6556 8.14352 11.3486 8.14352 11.0285C8.14352 10.7084 8.01636 10.4015 7.79002 10.1751C7.56368 9.94878 7.2567 9.82162 6.93661 9.82162C6.61652 9.82162 6.30954 9.94878 6.0832 10.1751L1.41947 14.8509C0.479939 15.8735 -0.0281858 17.2196 0.00120769 18.608C0.0306012 19.9964 0.59524 21.3198 1.57721 22.3017C2.55918 23.2837 3.88255 23.8483 5.27095 23.8777C6.65935 23.9071 8.00543 23.399 9.02808 22.4595L13.7038 17.7957C13.9302 17.5694 14.0573 17.2624 14.0573 16.9423C14.0573 16.6222 13.9302 16.3153 13.7038 16.0889C13.4775 15.8626 13.1705 15.7354 12.8504 15.7354C12.5303 15.7354 12.2233 15.8626 11.997 16.0889ZM22.3101 1.56885C21.2989 0.563997 19.9313 0 18.5058 0C17.0802 0 15.7126 0.563997 14.7015 1.56885L10.0257 6.23258C9.91366 6.34465 9.82476 6.4777 9.7641 6.62413C9.70345 6.77056 9.67223 6.9275 9.67223 7.086C9.67223 7.24449 9.70345 7.40143 9.7641 7.54786C9.82476 7.69429 9.91366 7.82734 10.0257 7.93941C10.1378 8.05148 10.2709 8.14038 10.4173 8.20104C10.5637 8.26169 10.7206 8.29291 10.8791 8.29291C11.0376 8.29291 11.1946 8.26169 11.341 8.20104C11.4874 8.14038 11.6205 8.05148 11.7326 7.93941L16.3963 3.27568C16.9609 2.73073 17.715 2.42618 18.4998 2.42618C19.2845 2.42618 20.0386 2.73073 20.6033 3.27568C20.8802 3.55152 21.0999 3.87933 21.2499 4.2403C21.3998 4.60127 21.477 4.9883 21.477 5.37917C21.477 5.77004 21.3998 6.15706 21.2499 6.51803C21.0999 6.879 20.8802 7.20681 20.6033 7.48265L15.9395 12.1464C15.8269 12.2581 15.7374 12.3911 15.6764 12.5375C15.6154 12.684 15.584 12.8411 15.584 12.9998C15.584 13.1585 15.6154 13.3156 15.6764 13.4621C15.7374 13.6085 15.8269 13.7415 15.9395 13.8532C16.0513 13.9659 16.1842 14.0553 16.3307 14.1163C16.4772 14.1773 16.6343 14.2088 16.7929 14.2088C16.9516 14.2088 17.1087 14.1773 17.2552 14.1163C17.4017 14.0553 17.5346 13.9659 17.6464 13.8532L22.3101 9.17746C23.3149 8.16632 23.8789 6.79869 23.8789 5.37316C23.8789 3.94763 23.3149 2.57999 22.3101 1.56885ZM8.05446 15.8245C8.16678 15.9359 8.29998 16.024 8.44642 16.0838C8.59287 16.1436 8.74969 16.174 8.90788 16.1731C9.06607 16.174 9.22288 16.1436 9.36933 16.0838C9.51578 16.024 9.64898 15.9359 9.76129 15.8245L15.6751 9.91068C15.9014 9.68434 16.0286 9.37735 16.0286 9.05726C16.0286 8.73717 15.9014 8.43019 15.6751 8.20385C15.4488 7.97751 15.1418 7.85035 14.8217 7.85035C14.5016 7.85035 14.1946 7.97751 13.9683 8.20385L8.05446 14.1176C7.9418 14.2294 7.85238 14.3623 7.79136 14.5088C7.73033 14.6553 7.69892 14.8124 7.69892 14.9711C7.69892 15.1297 7.73033 15.2868 7.79136 15.4333C7.85238 15.5798 7.9418 15.7127 8.05446 15.8245Z" fill="white"/>
</svg>
