<svg width="294" height="320" viewBox="0 0 294 320" fill="none" xmlns="http://www.w3.org/2000/svg">
<path d="M228.512 38.6957V65.6522H255.395M0 261.087H94.093M87.3721 186.957V85.8696H71.6182C62.6664 85.8696 53.969 88.8564 46.8967 94.3593C39.8244 99.8621 34.7792 107.568 32.5562 116.263L6.72093 217.283V220.652H127.698V240.87C127.698 261.087 127.698 274.565 137.779 294.783C137.779 294.783 147.86 315 161.302 315M228.512 126.304C212.469 126.304 197.084 119.914 185.74 108.54C174.396 97.1652 168.023 81.7381 168.023 65.6522C168.023 49.5662 174.396 34.1391 185.74 22.7646C197.084 11.3901 212.469 5 228.512 5C244.554 5 259.94 11.3901 271.283 22.7646C282.627 34.1391 289 49.5662 289 65.6522C289 81.7381 282.627 97.1652 271.283 108.54C259.94 119.914 244.554 126.304 228.512 126.304ZM85.3558 58.913C85.3558 58.913 63.8488 45.4348 63.8488 28.587C63.8488 25.493 64.4566 22.4294 65.6374 19.5709C66.8182 16.7125 68.5489 14.1153 70.7308 11.9275C72.9126 9.73977 75.5028 8.00435 78.3535 6.82035C81.2042 5.63635 84.2596 5.02696 87.3452 5.02696C90.4308 5.02696 93.4862 5.63635 96.3369 6.82035C99.1876 8.00435 101.778 9.73977 103.96 11.9275C106.141 14.1153 107.872 16.7125 109.053 19.5709C110.234 22.4294 110.842 25.493 110.842 28.587C110.842 45.4348 89.3884 58.913 89.3884 58.913H85.3558Z" stroke="url(#paint0_linear_276_13934)" stroke-width="8.51163"/>
<defs>
<linearGradient id="paint0_linear_276_13934" x1="0" y1="5" x2="289" y2="5" gradientUnits="userSpaceOnUse">
<stop stop-color="#C19B61"/>
<stop offset="0.502893" stop-color="#B48650"/>
<stop offset="1" stop-color="#9C5F30"/>
</linearGradient>
</defs>
</svg>
