<svg width="188" height="206" viewBox="0 0 188 206" fill="none" xmlns="http://www.w3.org/2000/svg">
<path d="M144.698 26.2791V43.3023H161.721M0 166.721H59.5814M55.3256 119.907V56.0698H45.35C39.6815 56.0698 34.1742 57.956 29.6959 61.4311C25.2175 64.9062 22.0228 69.7726 20.6152 75.2635L4.25581 139.058V141.186H80.8605V153.953C80.8605 166.721 80.8605 175.233 87.2442 188C87.2442 188 93.6279 200.767 102.14 200.767M144.698 81.6047C134.539 81.6047 124.797 77.5692 117.614 70.3862C110.431 63.2031 106.395 53.4607 106.395 43.3023C106.395 33.1439 110.431 23.4016 117.614 16.2185C124.797 9.03541 134.539 5 144.698 5C154.856 5 164.598 9.03541 171.782 16.2185C178.965 23.4016 183 33.1439 183 43.3023C183 53.4607 178.965 63.2031 171.782 70.3862C164.598 77.5692 154.856 81.6047 144.698 81.6047ZM54.0488 39.0465C54.0488 39.0465 40.4302 30.5349 40.4302 19.8953C40.4302 17.9415 40.8151 16.0068 41.5628 14.2017C42.3105 12.3965 43.4064 10.7564 44.788 9.37478C46.1696 7.9932 47.8097 6.89727 49.6149 6.14957C51.42 5.40186 53.3547 5.01702 55.3086 5.01702C57.2624 5.01702 59.1971 5.40186 61.0022 6.14957C62.8074 6.89727 64.4475 7.9932 65.8291 9.37478C67.2107 10.7564 68.3066 12.3965 69.0543 14.2017C69.802 16.0068 70.1869 17.9415 70.1869 19.8953C70.1869 30.5349 56.6023 39.0465 56.6023 39.0465H54.0488Z" stroke="url(#paint0_linear_276_12504)" stroke-width="8.51163"/>
<defs>
<linearGradient id="paint0_linear_276_12504" x1="0" y1="5" x2="183" y2="5" gradientUnits="userSpaceOnUse">
<stop stop-color="#C19B61"/>
<stop offset="0.502893" stop-color="#B48650"/>
<stop offset="1" stop-color="#9C5F30"/>
</linearGradient>
</defs>
</svg>
