<svg width="14" height="17" viewBox="0 0 14 17" fill="none" xmlns="http://www.w3.org/2000/svg">
<path d="M5.65016 16.4429C5.90444 16.6968 6.24913 16.8395 6.60852 16.8395C6.9679 16.8395 7.31259 16.6968 7.56687 16.4429L12.6832 11.3292C12.9376 11.0748 13.0806 10.7298 13.0806 10.37C13.0806 10.0102 12.9376 9.66511 12.6832 9.4107C12.4288 9.15629 12.0838 9.01336 11.724 9.01336C11.3642 9.01336 11.0191 9.15629 10.7647 9.4107L7.96468 12.2098L7.96468 1.78092C7.96468 1.42124 7.8218 1.0763 7.56747 0.821966C7.31314 0.567634 6.96819 0.424753 6.60852 0.424753C6.24884 0.424753 5.90389 0.567634 5.64956 0.821966C5.39523 1.0763 5.25235 1.42124 5.25235 1.78092L5.25235 12.2098L2.45323 9.4107C2.32726 9.28473 2.17771 9.1848 2.01312 9.11662C1.84853 9.04845 1.67212 9.01336 1.49397 9.01336C1.31582 9.01336 1.13941 9.04845 0.974821 9.11662C0.81023 9.1848 0.66068 9.28473 0.534708 9.4107C0.408736 9.53667 0.30881 9.68622 0.240635 9.85081C0.172459 10.0154 0.13737 10.1918 0.13737 10.37C0.13737 10.5481 0.172459 10.7245 0.240634 10.8891C0.30881 11.0537 0.408736 11.2032 0.534708 11.3292L5.65016 16.4429Z" fill="url(#paint0_linear_824_6465)"/>
<defs>
<linearGradient id="paint0_linear_824_6465" x1="13.0806" y1="16.8395" x2="0.137368" y2="16.8395" gradientUnits="userSpaceOnUse">
<stop stop-color="#C19B61"/>
<stop offset="0.502893" stop-color="#B48650"/>
<stop offset="1" stop-color="#9C5F30"/>
</linearGradient>
</defs>
</svg>
