<svg width="16" height="16" viewBox="0 0 16 16" fill="none" xmlns="http://www.w3.org/2000/svg">
<path d="M3.96492 0.710693V2.48965M12.2667 0.710693V2.48965M1 13.1634V4.2686C1 3.79679 1.18742 3.34431 1.52104 3.01069C1.85466 2.67707 2.30715 2.48965 2.77895 2.48965H13.4527C13.9245 2.48965 14.377 2.67707 14.7106 3.01069C15.0442 3.34431 15.2316 3.79679 15.2316 4.2686V13.1634M1 13.1634C1 13.6352 1.18742 14.0877 1.52104 14.4213C1.85466 14.7549 2.30715 14.9423 2.77895 14.9423H13.4527C13.9245 14.9423 14.377 14.7549 14.7106 14.4213C15.0442 14.0877 15.2316 13.6352 15.2316 13.1634M1 13.1634V7.23352C1 6.76171 1.18742 6.30923 1.52104 5.97561C1.85466 5.64199 2.30715 5.45457 2.77895 5.45457H13.4527C13.9245 5.45457 14.377 5.64199 14.7106 5.97561C15.0442 6.30923 15.2316 6.76171 15.2316 7.23352V13.1634M8.11581 8.41949H8.12214V8.42582H8.11581V8.41949ZM8.11581 10.1984H8.12214V10.2048H8.11581V10.1984ZM8.11581 11.9774H8.12214V11.9837H8.11581V11.9774ZM6.33686 10.1984H6.34318V10.2048H6.33686V10.1984ZM6.33686 11.9774H6.34318V11.9837H6.33686V11.9774ZM4.55791 10.1984H4.56423V10.2048H4.55791V10.1984ZM4.55791 11.9774H4.56423V11.9837H4.55791V11.9774ZM9.89477 8.41949H9.90109V8.42582H9.89477V8.41949ZM9.89477 10.1984H9.90109V10.2048H9.89477V10.1984ZM9.89477 11.9774H9.90109V11.9837H9.89477V11.9774ZM11.6737 8.41949H11.68V8.42582H11.6737V8.41949ZM11.6737 10.1984H11.68V10.2048H11.6737V10.1984Z" stroke="url(#paint0_linear_824_6496)" stroke-width="1.35539" stroke-linecap="round" stroke-linejoin="round"/>
<defs>
<linearGradient id="paint0_linear_824_6496" x1="1" y1="0.710693" x2="15.2316" y2="0.710693" gradientUnits="userSpaceOnUse">
<stop stop-color="#C19B61"/>
<stop offset="0.502893" stop-color="#B48650"/>
<stop offset="1" stop-color="#9C5F30"/>
</linearGradient>
</defs>
</svg>
