<svg width="20" height="17" viewBox="0 0 20 17" fill="none" xmlns="http://www.w3.org/2000/svg">
<path d="M19.6719 6.33025L15.2281 10.764C15.0194 10.9723 14.7364 11.0893 14.4412 11.0893C14.1461 11.0893 13.863 10.9723 13.6543 10.764C13.4456 10.5558 13.3284 10.2734 13.3284 9.9789C13.3284 9.68441 13.4456 9.40198 13.6543 9.19374L16.2011 6.65447H13.4238C11.6993 6.65391 10.0236 7.22527 8.66011 8.2787C7.29664 9.33213 6.32277 10.8079 5.89165 12.4738C5.85518 12.6148 5.79124 12.7472 5.70348 12.8635C5.61572 12.9798 5.50587 13.0777 5.38018 13.1516C5.2545 13.2256 5.11545 13.2741 4.97098 13.2944C4.8265 13.3147 4.67943 13.3065 4.53816 13.2701C4.39689 13.2337 4.26419 13.1699 4.14763 13.0823C4.03107 12.9948 3.93294 12.8851 3.85884 12.7597C3.78473 12.6343 3.73611 12.4956 3.71575 12.3515C3.69538 12.2073 3.70367 12.0606 3.74014 11.9196C4.29355 9.77726 5.54536 7.87941 7.29848 6.52486C9.05161 5.17032 11.2065 4.43601 13.4238 4.43757H16.2011L13.6562 1.89552C13.4474 1.68729 13.3302 1.40486 13.3302 1.11037C13.3302 0.815883 13.4474 0.533456 13.6562 0.32522C13.8649 0.116985 14.1479 3.10295e-09 14.4431 0C14.7382 -3.10295e-09 15.0213 0.116985 15.23 0.32522L19.6737 4.75902C19.7773 4.86214 19.8594 4.98466 19.9154 5.11954C19.9714 5.25443 20.0002 5.39902 20 5.54502C19.9998 5.69102 19.9708 5.83554 19.9144 5.97029C19.8581 6.10505 19.7757 6.22737 19.6719 6.33025ZM15.9234 14.7831H2.22187V4.06809C2.22187 3.77411 2.10482 3.49217 1.89648 3.28429C1.68814 3.07642 1.40557 2.95964 1.11093 2.95964C0.816296 2.95964 0.533725 3.07642 0.325385 3.28429C0.117045 3.49217 0 3.77411 0 4.06809V15.8916C0 16.1855 0.117045 16.4675 0.325385 16.6753C0.533725 16.8832 0.816296 17 1.11093 17H15.9234C16.218 17 16.5006 16.8832 16.7089 16.6753C16.9173 16.4675 17.0343 16.1855 17.0343 15.8916C17.0343 15.5976 16.9173 15.3156 16.7089 15.1078C16.5006 14.8999 16.218 14.7831 15.9234 14.7831Z" fill="#D2D2D2"/>
</svg>
