<svg width="21" height="19" viewBox="0 0 21 19" fill="none" xmlns="http://www.w3.org/2000/svg">
<path d="M21 8.95111C21.004 10.341 20.6442 11.7121 19.95 12.9528C19.1268 14.4394 17.8613 15.6899 16.2953 16.564C14.7293 17.4382 12.9246 17.9016 11.0833 17.9022C9.54347 17.9058 8.02446 17.5811 6.64999 16.9544L0 18.9553L2.21666 12.9528C1.52242 11.7121 1.16265 10.341 1.16666 8.95111C1.16738 7.28911 1.68071 5.66012 2.64917 4.24658C3.61762 2.83305 5.00296 1.6908 6.64999 0.947792C8.02446 0.321143 9.54347 -0.00359387 11.0833 2.99999e-05H11.6666C14.0984 0.121124 16.3952 1.04758 18.1173 2.60201C19.8394 4.15645 20.8658 6.22962 21 8.42458V8.95111Z" fill="#FDFDFD"/>
</svg>
