<svg width="16" height="21" viewBox="0 0 16 21" fill="none" xmlns="http://www.w3.org/2000/svg">
<path d="M13.5 7H13V6.5V5C13.0013 3.618 12.514 2.439 11.538 1.463C10.562 0.487001 9.38267 -0.000665984 8 0C6.61733 0.000667349 5.43833 0.488334 4.463 1.463C3.48767 2.43767 3 3.61667 3 5L13.5 7ZM13.5 7H14C14.55 7 15.021 7.196 15.413 7.588C15.805 7.98 16.0007 8.45067 16 9V19C16 19.55 15.8043 20.021 15.413 20.413C15.0217 20.805 14.5507 21.0007 14 21H2C1.45 21 0.979333 20.8043 0.588 20.413C0.196666 20.0217 0.000666667 19.5507 0 19M13.5 7H2M0 19H0.5V18.9997M0 19L0.5 18.9994C0.5 18.9995 0.5 18.9996 0.5 18.9997M0 19V9C0 8.45 0.196 7.97933 0.588 7.588C0.98 7.19667 1.45067 7.00067 2 7M0.5 18.9997C0.500569 19.4171 0.643378 19.7613 0.941553 20.0594C1.23978 20.3577 1.58354 20.5 2 20.5H14H14.0006C14.4174 20.5005 14.7611 20.3583 15.0591 20.0597C15.3576 19.7607 15.5 19.4165 15.5 19V9V8.99939C15.5005 8.58424 15.3585 8.24061 15.0594 7.94155C14.7604 7.64248 14.4162 7.5 14 7.5H13H12.5V7V5V4.99952C12.5012 3.75011 12.0664 2.69854 11.1844 1.81655C10.3025 0.934565 9.25047 0.499398 8.00024 0.500001C6.74963 0.500604 5.69778 0.935934 4.81643 1.81668C3.93528 2.69722 3.5 3.74885 3.5 5V7V7.5H3L2.00061 7.5L2 7M0.5 18.9997V9C0.5 8.58381 0.642455 8.24014 0.941252 7.94185C1.24044 7.64317 1.58455 7.50059 2.00024 7.5H2V7M8.00127 16.5C8.68425 16.4997 9.28156 16.2507 9.76625 15.7669C10.2517 15.2822 10.5008 14.6839 10.5 13.9994C10.4992 13.3158 10.2505 12.7184 9.76655 12.2344C9.28263 11.7505 8.68504 11.5017 8.00121 11.5C7.31541 11.4983 6.71663 11.7481 6.23295 12.236C5.75166 12.7214 5.50249 13.3174 5.5 13.9982C5.49751 14.6819 5.74801 15.2801 6.23445 15.7666C6.72063 16.2527 7.31829 16.503 8.00127 16.5ZM8.00127 16.5C8.00085 16.5 8.00042 16.5 8 16.5V16L8.00127 16.5ZM4.5 7V7.5H5H11H11.5V7V5C11.5 4.03557 11.1567 3.19961 10.4786 2.52145C9.80039 1.84328 8.96443 1.5 8 1.5C7.03557 1.5 6.19961 1.84328 5.52145 2.52145C4.84328 3.19961 4.5 4.03557 4.5 5V7Z" stroke="url(#paint0_linear_442_22830)"/>
<defs>
<linearGradient id="paint0_linear_442_22830" x1="0" y1="0" x2="16" y2="8.80845e-09" gradientUnits="userSpaceOnUse">
<stop stop-color="#C19B61"/>
<stop offset="0.502893" stop-color="#B48650"/>
<stop offset="1" stop-color="#9C5F30"/>
</linearGradient>
</defs>
</svg>
