<svg width="9" height="18" viewBox="0 0 9 18" fill="none" xmlns="http://www.w3.org/2000/svg">
<path d="M2.55155 17.7114V12.6083H0L3.04059 4.95363H5.46456L8.50515 12.6083H5.95361V17.7114H2.55155ZM4.25258 4.10312C3.78479 4.10312 3.38448 3.9367 3.05165 3.60386C2.71881 3.27103 2.55211 2.87044 2.55155 2.40209C2.55098 1.93374 2.71768 1.53343 3.05165 1.20116C3.38562 0.868891 3.78593 0.70219 4.25258 0.701056C4.71923 0.699922 5.11982 0.866623 5.45436 1.20116C5.78889 1.53569 5.95531 1.936 5.95361 2.40209C5.95191 2.86817 5.78549 3.26876 5.45436 3.60386C5.12322 3.93897 4.72263 4.10539 4.25258 4.10312Z" fill="url(#paint0_linear_276_10977)"/>
<defs>
<linearGradient id="paint0_linear_276_10977" x1="0" y1="0.70105" x2="8.50516" y2="0.70105" gradientUnits="userSpaceOnUse">
<stop stop-color="#C19B61"/>
<stop offset="0.502893" stop-color="#B48650"/>
<stop offset="1" stop-color="#9C5F30"/>
</linearGradient>
</defs>
</svg>
