<svg width="67" height="66" viewBox="0 0 67 66" fill="none" xmlns="http://www.w3.org/2000/svg">
<rect x="1.5" y="1" width="64" height="64" rx="32" stroke="url(#paint0_linear_276_7963)" stroke-width="2"/>
<path d="M44 32.4167C44.004 33.9565 43.6442 35.4755 42.95 36.85C42.1268 38.497 40.8613 39.8824 39.2953 40.8508C37.7293 41.8193 35.9246 42.3326 34.0833 42.3333C32.5435 42.3374 31.0245 41.9776 29.65 41.2833L23 43.5L25.2167 36.85C24.5224 35.4755 24.1627 33.9565 24.1667 32.4167C24.1674 30.5754 24.6807 28.7707 25.6492 27.2047C26.6176 25.6387 28.003 24.3732 29.65 23.55C31.0245 22.8558 32.5435 22.496 34.0833 22.5H34.6666C37.0984 22.6342 39.3952 23.6606 41.1173 25.3827C42.8394 27.1048 43.8658 29.4016 44 31.8334V32.4167Z" fill="url(#paint1_linear_276_7963)"/>
<defs>
<linearGradient id="paint0_linear_276_7963" x1="1.5" y1="1" x2="65.5" y2="1" gradientUnits="userSpaceOnUse">
<stop stop-color="#C19B61"/>
<stop offset="0.502893" stop-color="#B48650"/>
<stop offset="1" stop-color="#9C5F30"/>
</linearGradient>
<linearGradient id="paint1_linear_276_7963" x1="23" y1="22.5" x2="44" y2="22.5" gradientUnits="userSpaceOnUse">
<stop stop-color="#C19B61"/>
<stop offset="0.502893" stop-color="#B48650"/>
<stop offset="1" stop-color="#9C5F30"/>
</linearGradient>
</defs>
</svg>
