<svg width="19" height="24" viewBox="0 0 19 24" fill="none" xmlns="http://www.w3.org/2000/svg">
<path d="M18.6292 18.2031L17.0138 16.6154V10.4615C17.0138 6.68308 14.9601 3.52 11.3786 2.68308V1.84615C11.3786 0.824615 10.5396 0 9.50021 0C8.46084 0 7.62183 0.824615 7.62183 1.84615V2.68308C4.02785 3.52 1.98668 6.67077 1.98668 10.4615V16.6154L0.371265 18.2031C-0.417656 18.9785 0.133337 20.3077 1.24784 20.3077H17.7401C18.8671 20.3077 19.4181 18.9785 18.6292 18.2031ZM14.5092 17.8462H4.49119V10.4615C4.49119 7.40923 6.3821 4.92308 9.50021 4.92308C12.6183 4.92308 14.5092 7.40923 14.5092 10.4615V17.8462ZM9.50021 24C10.8777 24 12.0047 22.8923 12.0047 21.5385H6.9957C6.9957 22.8923 8.11021 24 9.50021 24Z" fill="#D2D2D2"/>
</svg>
