<svg width="16" height="15" viewBox="0 0 16 15" fill="none" xmlns="http://www.w3.org/2000/svg">
<path d="M10.273 9.64431L10.0975 9.47065C9.99854 9.5698 9.88756 9.66147 9.76736 9.74337C9.76722 9.74347 9.76707 9.74356 9.76693 9.74366C9.7214 9.77467 9.67455 9.80427 9.62654 9.83235C9.66641 9.83182 9.70652 9.8356 9.74619 9.84381C9.87789 9.87156 10.0907 9.82806 10.273 9.64431ZM10.273 9.64431L10.0977 9.47043L9.91803 9.29217C9.88217 9.32832 9.85143 9.34281 9.83454 9.34836C9.83194 9.34921 9.8297 9.34984 9.82785 9.35031C9.70717 9.32771 9.58468 9.32656 9.46567 9.3458C9.56688 9.27795 9.66146 9.20023 9.74694 9.11407C10.0349 8.82383 10.3228 8.89957 10.4047 8.98132C10.4858 9.06307 10.5609 9.35332 10.273 9.64431ZM8.8997 5.95538C9.18159 5.95803 9.45006 6.07347 9.64629 6.275C9.84239 6.47639 9.95041 6.74722 9.94781 7.02773C9.94694 7.12127 9.9338 7.21351 9.90925 7.30225C10.4716 7.21648 11.0699 7.35123 11.5483 7.83344C12.1697 8.45981 12.2048 9.30694 11.9396 9.98706C11.9816 10.1204 11.9972 10.2616 11.9845 10.4027C11.9625 10.6485 11.8558 10.8795 11.6821 11.0554C11.5083 11.2314 11.2783 11.3413 11.0316 11.365C10.8919 11.3784 10.7522 11.3637 10.6202 11.323C10.2432 11.4741 9.82922 11.5148 9.42682 11.4373L9.42009 11.436L9.4201 11.4359C9.14409 11.3788 8.90306 11.2137 8.74923 10.9784C8.59549 10.7433 8.541 10.4569 8.59704 10.182C8.59919 10.1714 8.60149 10.1609 8.60395 10.1505C8.09946 10.1809 7.58049 10.0264 7.15599 9.5981C6.53479 8.97254 6.49977 8.12586 6.76455 7.44609C6.72226 7.31273 6.70633 7.17138 6.71877 7.03012C6.72589 6.94919 6.74218 6.86985 6.76702 6.79355M8.8997 5.95538C8.89994 5.95538 8.90018 5.95538 8.90042 5.95538L8.895 6.45535L8.8997 5.95538ZM8.8997 5.95538C8.62006 5.95244 8.34467 6.00718 8.08736 6.10924M8.08736 6.10924C7.95446 6.06767 7.81361 6.0525 7.67277 6.06592C7.55958 6.0767 7.44989 6.10561 7.34752 6.15073M8.08736 6.10924C8.00711 6.14107 7.92862 6.17751 7.8523 6.21823L8.0877 6.65935L8.37147 6.24768C8.28359 6.1871 8.18775 6.14064 8.08736 6.10924ZM7.34752 6.15073C7.3891 6.07743 7.42611 6.00142 7.45827 5.92312C7.55782 5.68075 7.60898 5.42112 7.60894 5.15902C7.60889 4.89692 7.55764 4.63731 7.458 4.39497C7.35836 4.15262 7.21224 3.93216 7.02778 3.7463C6.84331 3.56043 6.62412 3.41279 6.3826 3.312C6.14108 3.21121 5.88208 3.1593 5.62044 3.15935C5.3588 3.1594 5.09983 3.21139 4.85834 3.31227C4.61686 3.41314 4.39772 3.56086 4.21331 3.7468C3.84098 4.12224 3.63256 4.63056 3.63265 5.15972C3.63274 5.68889 3.84134 6.19713 4.21381 6.57244C4.58642 6.94789 5.09257 7.15948 5.62115 7.15939C6.03459 7.15932 6.43428 7.02973 6.76702 6.79355M7.34752 6.15073C7.28244 6.26544 7.20615 6.37351 7.11971 6.4733C7.09039 6.50716 7.0599 6.54006 7.02828 6.57194C6.94715 6.65375 6.85968 6.72778 6.76702 6.79355M7.34752 6.15073C7.22631 6.20415 7.11536 6.28029 7.021 6.37594C6.98938 6.408 6.95998 6.44189 6.93291 6.47736C6.86001 6.57287 6.80403 6.67985 6.76702 6.79355M8.88458 7.58034C8.7123 7.58676 8.54947 7.66141 8.43145 7.78809C8.14351 8.07833 8.21865 8.36933 8.29976 8.45108M8.88458 7.58034L9.21382 10.0243C9.15068 10.097 9.10659 10.1855 9.08696 10.2818C9.05717 10.428 9.08621 10.5801 9.1677 10.7048C9.24919 10.8294 9.37645 10.9163 9.52149 10.9463C9.89554 11.0184 10.2828 10.9569 10.6167 10.7723C10.7243 10.8461 10.8542 10.8797 10.9837 10.8673C11.1133 10.8548 11.2345 10.7971 11.3263 10.7041C11.4181 10.6111 11.4748 10.4887 11.4865 10.358C11.4983 10.2274 11.4643 10.0967 11.3906 9.98856C11.6904 9.41482 11.6941 8.69033 11.1934 8.18558C10.5483 7.53534 9.54084 7.73034 8.9575 8.31833C8.66955 8.60858 8.3816 8.53283 8.29976 8.45108M8.88458 7.58034L8.8832 7.72684M8.88458 7.58034L8.88986 7.72204C9.02582 7.6245 9.17458 7.5396 9.33175 7.4709L8.8832 7.72684M8.29976 8.45108L8.6531 8.09732C8.62656 8.07081 8.60291 8.05531 8.58841 8.04699C8.57294 8.03812 8.56047 8.03318 8.55197 8.0304C8.53502 8.02486 8.52475 8.0249 8.52126 8.02511C8.51962 8.02521 8.51897 8.02537 8.5193 8.02532C8.51992 8.02521 8.52397 8.02433 8.53145 8.0208C8.54304 8.01533 8.56793 8.00107 8.60254 7.96619C8.60394 7.96478 8.60533 7.96338 8.60673 7.96198C8.60856 7.96015 8.61039 7.95832 8.61222 7.95649C8.69481 7.87431 8.78568 7.79732 8.8832 7.72684M8.29976 8.45108L8.65471 8.09893C8.68169 8.12613 8.69727 8.15028 8.70544 8.16471C8.7142 8.18018 8.71895 8.19245 8.72155 8.20052C8.72672 8.21657 8.72645 8.2255 8.72634 8.22736C8.72615 8.23041 8.72574 8.2256 8.73157 8.21303C8.73717 8.20095 8.75073 8.17708 8.78226 8.14447C8.78361 8.14308 8.78499 8.14166 8.78641 8.14023L8.79194 8.13466L8.79729 8.12891C8.82413 8.10011 8.85987 8.08324 8.89718 8.08034L8.8832 7.72684M1.27847 7.97554L1.27834 7.9751C1.19637 7.68733 1.18344 7.37382 1.243 6.91997C1.30393 6.45564 1.43453 5.88357 1.61965 5.07611L1.61972 5.07581L1.83029 4.15483C1.83029 4.15483 1.83029 4.15483 1.83029 4.15482C1.98621 3.47288 2.09543 2.99836 2.21911 2.63492C2.33903 2.28252 2.45957 2.07633 2.61525 1.91905C2.77104 1.76237 2.97488 1.64136 3.32342 1.52085C3.68338 1.39639 4.15355 1.28642 4.83028 1.12921L4.83066 1.12912L5.744 0.916205C5.74404 0.916195 5.74409 0.916185 5.74413 0.916176C6.54579 0.729904 7.11277 0.598577 7.57278 0.537234C8.02197 0.477335 8.33116 0.490263 8.61479 0.572019C8.89857 0.654184 9.16816 0.808622 9.51812 1.09977C9.87628 1.39773 10.2883 1.81225 10.8697 2.3983L12.2312 3.77072C13.2415 4.78948 13.9631 5.51846 14.4382 6.14624C14.9045 6.76232 15.087 7.22242 15.087 7.69659C15.087 8.17119 14.9045 8.6315 14.4382 9.2475C13.9631 9.87524 13.2416 10.604 12.2313 11.6224C11.2205 12.6412 10.4974 13.3686 9.87471 13.8475C9.26339 14.3176 8.80861 14.5 8.34142 14.5C7.87463 14.5 7.41984 14.3176 6.80848 13.8475C6.18577 13.3687 5.46263 12.6415 4.4523 11.6231L3.0908 10.2508C2.50931 9.66426 2.09807 9.249 1.80246 8.88797C1.51368 8.53527 1.36009 8.26306 1.27847 7.97554ZM8.94498 9.58825C8.45291 9.72848 7.912 9.65067 7.51106 9.24607C7.01031 8.74208 7.01403 8.01759 7.31389 7.44384L8.94498 9.58825Z" stroke="url(#paint0_linear_425_21815)"/>
<defs>
<linearGradient id="paint0_linear_425_21815" x1="0.706055" y1="0" x2="15.587" y2="1.06672e-08" gradientUnits="userSpaceOnUse">
<stop stop-color="#C19B61"/>
<stop offset="0.502893" stop-color="#B48650"/>
<stop offset="1" stop-color="#9C5F30"/>
</linearGradient>
</defs>
</svg>
