<svg width="6" height="5" viewBox="0 0 6 5" fill="none" xmlns="http://www.w3.org/2000/svg">
<path d="M3.65168 4.04307V3.61457C3.65168 3.38727 3.56138 3.16929 3.40066 3.00857C3.23994 2.84785 3.02196 2.75756 2.79467 2.75756H1.08064C0.85335 2.75756 0.635366 2.84785 0.474645 3.00857C0.313925 3.16929 0.223633 3.38727 0.223633 3.61457V4.04307M4.93719 4.04307V3.61457C4.93705 3.42468 4.87385 3.24022 4.75751 3.09014C4.64118 2.94007 4.47829 2.83288 4.29443 2.78541M3.43742 0.214376C3.62177 0.261576 3.78516 0.368788 3.90185 0.51911C4.01853 0.669432 4.08186 0.854313 4.08186 1.04461C4.08186 1.2349 4.01853 1.41978 3.90185 1.5701C3.78516 1.72042 3.62177 1.82763 3.43742 1.87483M2.79467 1.04353C2.79467 1.51685 2.41097 1.90055 1.93765 1.90055C1.46434 1.90055 1.08064 1.51685 1.08064 1.04353C1.08064 0.57022 1.46434 0.186523 1.93765 0.186523C2.41097 0.186523 2.79467 0.57022 2.79467 1.04353Z" stroke="url(#paint0_linear_442_24309)" stroke-width="0.385655" stroke-linecap="round" stroke-linejoin="round"/>
<defs>
<linearGradient id="paint0_linear_442_24309" x1="0.223633" y1="0.186523" x2="4.93719" y2="0.186523" gradientUnits="userSpaceOnUse">
<stop stop-color="#C19B61"/>
<stop offset="0.502893" stop-color="#B48650"/>
<stop offset="1" stop-color="#9C5F30"/>
</linearGradient>
</defs>
</svg>
