<svg width="19" height="20" viewBox="0 0 19 20" fill="none" xmlns="http://www.w3.org/2000/svg">
<path d="M9.77757 9.7778C12.4776 9.7778 14.6665 7.58896 14.6665 4.8889C14.6665 2.18883 12.4776 0 9.77757 0C7.07751 0 4.88867 2.18883 4.88867 4.8889C4.88867 7.58896 7.07751 9.7778 9.77757 9.7778Z" fill="#6D7076"/>
<path d="M10.2056 12.2348C6.8689 12.1126 0 13.7748 0 17.1115V19.5559H11.66C8.64113 16.1826 10.1567 12.357 10.2056 12.2348Z" fill="#6D7076"/>
<path d="M8.45458 12.2348C11.7913 12.1126 18.6602 13.7748 18.6602 17.1115V19.5559H7.00013C10.019 16.1826 8.50347 12.357 8.45458 12.2348Z" fill="#6D7076"/>
</svg>
