<svg width="49" height="49" viewBox="0 0 49 49" fill="none" xmlns="http://www.w3.org/2000/svg">
<g filter="url(#filter0_i_276_10900)">
<circle cx="24.2932" cy="24.2932" r="24.2932" fill="black"/>
</g>
<circle cx="24.2932" cy="24.2932" r="22.2932" stroke="url(#paint0_linear_276_10900)" stroke-width="4"/>
<path d="M17.8535 20.1954C21.0868 20.1954 23.7073 17.6404 23.7073 14.488C23.7073 11.3355 21.0868 8.78052 17.8535 8.78052C14.6202 8.78052 11.9997 11.3355 11.9997 14.488C11.9997 17.6404 14.6202 20.1954 17.8535 20.1954ZM21.9512 21.6223H21.1874C20.1721 22.0771 19.0426 22.3357 17.8535 22.3357C16.6645 22.3357 15.5394 22.0771 14.5196 21.6223H13.7558C10.3625 21.6223 7.60938 24.3065 7.60938 27.6151V29.47C7.60938 30.6516 8.59263 31.6103 9.80454 31.6103H25.9025C27.1144 31.6103 28.0976 30.6516 28.0976 29.47V27.6151C28.0976 24.3065 25.3445 21.6223 21.9512 21.6223Z" fill="url(#paint1_linear_276_10900)"/>
<path d="M30.1465 20.1955C33.3798 20.1955 36.0003 17.6405 36.0003 14.4881C36.0003 11.3356 33.3798 8.78061 30.1465 8.78061C26.9132 8.78061 24.2927 11.3356 24.2927 14.4881C24.2927 17.6405 26.9132 20.1955 30.1465 20.1955ZM34.2441 21.6224H33.4804C32.4651 22.0772 31.3355 22.3358 30.1465 22.3358C28.9574 22.3358 27.8324 22.0772 26.8126 21.6224H26.0488C22.6555 21.6224 19.9023 24.3066 19.9023 27.6152V29.4701C19.9023 30.6517 20.8856 31.6104 22.0975 31.6104H38.1954C39.4073 31.6104 40.3906 30.6517 40.3906 29.4701V27.6152C40.3906 24.3066 37.6375 21.6224 34.2441 21.6224Z" fill="url(#paint2_linear_276_10900)"/>
<path d="M13.3613 38.6709L14.7676 38.5342C14.8522 39.0062 15.0231 39.3529 15.2803 39.5742C15.5407 39.7956 15.8906 39.9062 16.3301 39.9062C16.7956 39.9062 17.1455 39.8086 17.3799 39.6133C17.6175 39.4147 17.7363 39.1836 17.7363 38.9199C17.7363 38.7507 17.6859 38.6074 17.585 38.4902C17.4873 38.3698 17.3148 38.2656 17.0674 38.1777C16.8981 38.1191 16.5124 38.015 15.9102 37.8652C15.1354 37.6732 14.5918 37.4372 14.2793 37.1572C13.8398 36.7633 13.6201 36.2832 13.6201 35.7168C13.6201 35.3522 13.7227 35.012 13.9277 34.6963C14.1361 34.3773 14.4339 34.1348 14.8213 33.9688C15.2119 33.8027 15.6823 33.7197 16.2324 33.7197C17.1309 33.7197 17.8063 33.9167 18.2588 34.3105C18.7145 34.7044 18.9538 35.2301 18.9766 35.8877L17.5312 35.9512C17.4694 35.5833 17.3359 35.3197 17.1309 35.1602C16.929 34.9974 16.6247 34.916 16.2178 34.916C15.7979 34.916 15.4691 35.0023 15.2314 35.1748C15.0785 35.2855 15.002 35.4336 15.002 35.6191C15.002 35.7884 15.0736 35.9333 15.2168 36.0537C15.3991 36.2067 15.8418 36.3662 16.5449 36.5322C17.248 36.6982 17.7673 36.8708 18.1025 37.0498C18.4411 37.2256 18.7048 37.4681 18.8936 37.7773C19.0856 38.0833 19.1816 38.4626 19.1816 38.915C19.1816 39.3252 19.0677 39.7093 18.8398 40.0674C18.612 40.4255 18.2897 40.6924 17.873 40.8682C17.4564 41.0407 16.9372 41.127 16.3154 41.127C15.4105 41.127 14.7155 40.9186 14.2305 40.502C13.7454 40.082 13.4557 39.4717 13.3613 38.6709ZM26.7305 40.126L25.9004 41.1855C25.4935 40.987 25.1029 40.7135 24.7285 40.3652C24.4388 40.6257 24.1312 40.8177 23.8057 40.9414C23.4801 41.0651 23.0928 41.127 22.6436 41.127C21.7516 41.127 21.0811 40.8763 20.6318 40.375C20.2835 39.9876 20.1094 39.5417 20.1094 39.0371C20.1094 38.5781 20.2461 38.1663 20.5195 37.8018C20.793 37.4339 21.2015 37.1149 21.7451 36.8447C21.501 36.555 21.3171 36.2799 21.1934 36.0195C21.0697 35.7559 21.0078 35.5068 21.0078 35.2725C21.0078 34.8395 21.1803 34.4733 21.5254 34.1738C21.8737 33.8711 22.3685 33.7197 23.0098 33.7197C23.6283 33.7197 24.1117 33.8776 24.46 34.1934C24.8083 34.5091 24.9824 34.8949 24.9824 35.3506C24.9824 35.6403 24.8962 35.9154 24.7236 36.1758C24.5511 36.4362 24.2028 36.7308 23.6787 37.0596L24.6748 38.373C24.792 38.1647 24.8929 37.8929 24.9775 37.5576L26.2178 37.8408C26.0941 38.2803 25.9867 38.6025 25.8955 38.8076C25.8044 39.0094 25.7067 39.1787 25.6025 39.3154C25.7555 39.4587 25.9525 39.6165 26.1934 39.7891C26.4375 39.9583 26.6165 40.0706 26.7305 40.126ZM22.9951 36.2344L23.3662 35.9512C23.6396 35.7396 23.7764 35.5296 23.7764 35.3213C23.7764 35.1455 23.7096 34.9958 23.5762 34.8721C23.446 34.7484 23.2686 34.6865 23.0439 34.6865C22.8258 34.6865 22.6549 34.7419 22.5312 34.8525C22.4076 34.96 22.3457 35.0853 22.3457 35.2285C22.3457 35.3978 22.4499 35.6029 22.6582 35.8438L22.9951 36.2344ZM22.458 37.7236C22.1423 37.8831 21.9062 38.0752 21.75 38.2998C21.5938 38.5244 21.5156 38.7539 21.5156 38.9883C21.5156 39.2845 21.6117 39.527 21.8037 39.7158C21.999 39.9014 22.2594 39.9941 22.585 39.9941C22.7998 39.9941 23.0065 39.9518 23.2051 39.8672C23.4036 39.7826 23.6201 39.6426 23.8545 39.4473L22.458 37.7236ZM27.6289 41V33.8418H30.6709C31.4359 33.8418 31.9909 33.9069 32.3359 34.0371C32.6842 34.1641 32.9626 34.3919 33.1709 34.7207C33.3792 35.0495 33.4834 35.4255 33.4834 35.8486C33.4834 36.3857 33.3255 36.8301 33.0098 37.1816C32.694 37.5299 32.222 37.7497 31.5938 37.8408C31.9062 38.0231 32.1634 38.2233 32.3652 38.4414C32.5703 38.6595 32.8454 39.0469 33.1904 39.6035L34.0645 41H32.3359L31.291 39.4424C30.9199 38.8857 30.666 38.5358 30.5293 38.3926C30.3926 38.2461 30.2477 38.1468 30.0947 38.0947C29.9417 38.0394 29.6992 38.0117 29.3672 38.0117H29.0742V41H27.6289ZM29.0742 36.8691H30.1436C30.8369 36.8691 31.2699 36.8398 31.4424 36.7812C31.6149 36.7227 31.75 36.6217 31.8477 36.4785C31.9453 36.3353 31.9941 36.1562 31.9941 35.9414C31.9941 35.7005 31.929 35.5068 31.7988 35.3604C31.6719 35.2106 31.4912 35.1162 31.2568 35.0771C31.1396 35.0609 30.7881 35.0527 30.2021 35.0527H29.0742V36.8691Z" fill="white"/>
<defs>
<filter id="filter0_i_276_10900" x="0" y="0" width="48.5864" height="51.5864" filterUnits="userSpaceOnUse" color-interpolation-filters="sRGB">
<feFlood flood-opacity="0" result="BackgroundImageFix"/>
<feBlend mode="normal" in="SourceGraphic" in2="BackgroundImageFix" result="shape"/>
<feColorMatrix in="SourceAlpha" type="matrix" values="0 0 0 0 0 0 0 0 0 0 0 0 0 0 0 0 0 0 127 0" result="hardAlpha"/>
<feMorphology radius="1" operator="dilate" in="SourceAlpha" result="effect1_innerShadow_276_10900"/>
<feOffset dy="4"/>
<feGaussianBlur stdDeviation="2"/>
<feComposite in2="hardAlpha" operator="arithmetic" k2="-1" k3="1"/>
<feColorMatrix type="matrix" values="0 0 0 0 0.756863 0 0 0 0 0.607843 0 0 0 0 0.380392 0 0 0 1 0"/>
<feBlend mode="normal" in2="shape" result="effect1_innerShadow_276_10900"/>
</filter>
<linearGradient id="paint0_linear_276_10900" x1="0" y1="0" x2="48.5864" y2="3.5107e-08" gradientUnits="userSpaceOnUse">
<stop stop-color="#C19B61"/>
<stop offset="0.502893" stop-color="#B48650"/>
<stop offset="1" stop-color="#9C5F30"/>
</linearGradient>
<linearGradient id="paint1_linear_276_10900" x1="7.60937" y1="8.78052" x2="28.0976" y2="8.78052" gradientUnits="userSpaceOnUse">
<stop stop-color="#C19B61"/>
<stop offset="0.502893" stop-color="#B48650"/>
<stop offset="1" stop-color="#9C5F30"/>
</linearGradient>
<linearGradient id="paint2_linear_276_10900" x1="19.9023" y1="8.78061" x2="40.3906" y2="8.78061" gradientUnits="userSpaceOnUse">
<stop stop-color="#C19B61"/>
<stop offset="0.502893" stop-color="#B48650"/>
<stop offset="1" stop-color="#9C5F30"/>
</linearGradient>
</defs>
</svg>
