<svg width="66" height="66" viewBox="0 0 66 66" fill="none" xmlns="http://www.w3.org/2000/svg">
<rect x="1" y="1" width="64" height="64" rx="32" stroke="url(#paint0_linear_315_16688)" stroke-width="2"/>
<path d="M33 28.7C31.9874 28.7 31.0162 29.1004 30.3001 29.813C29.5841 30.5256 29.1818 31.4922 29.1818 32.5C29.1818 33.5078 29.5841 34.4744 30.3001 35.187C31.0162 35.8996 31.9874 36.3 33 36.3C34.0126 36.3 34.9838 35.8996 35.6999 35.187C36.4159 34.4744 36.8182 33.5078 36.8182 32.5C36.8182 31.4922 36.4159 30.5256 35.6999 29.813C34.9838 29.1004 34.0126 28.7 33 28.7ZM33 38.8333C31.3123 38.8333 29.6936 38.1661 28.5002 36.9783C27.3068 35.7906 26.6364 34.1797 26.6364 32.5C26.6364 30.8203 27.3068 29.2094 28.5002 28.0217C29.6936 26.8339 31.3123 26.1667 33 26.1667C34.6877 26.1667 36.3064 26.8339 37.4998 28.0217C38.6932 29.2094 39.3636 30.8203 39.3636 32.5C39.3636 34.1797 38.6932 35.7906 37.4998 36.9783C36.3064 38.1661 34.6877 38.8333 33 38.8333ZM33 23C26.6364 23 21.2018 26.9393 19 32.5C21.2018 38.0607 26.6364 42 33 42C39.3636 42 44.7982 38.0607 47 32.5C44.7982 26.9393 39.3636 23 33 23Z" fill="url(#paint1_linear_315_16688)"/>
<defs>
<linearGradient id="paint0_linear_315_16688" x1="1" y1="1" x2="65" y2="1" gradientUnits="userSpaceOnUse">
<stop stop-color="#C19B61"/>
<stop offset="0.502893" stop-color="#B48650"/>
<stop offset="1" stop-color="#9C5F30"/>
</linearGradient>
<linearGradient id="paint1_linear_315_16688" x1="19" y1="23" x2="47" y2="23" gradientUnits="userSpaceOnUse">
<stop stop-color="#C19B61"/>
<stop offset="0.502893" stop-color="#B48650"/>
<stop offset="1" stop-color="#9C5F30"/>
</linearGradient>
</defs>
</svg>
