<svg width="22" height="29" viewBox="0 0 22 29" fill="none" xmlns="http://www.w3.org/2000/svg">
<path d="M6.48977 0.0294358C7.9828 -0.178984 9.23823 0.746431 9.83225 1.94925L11.2934 4.90896C12.104 6.55137 11.6382 8.47853 10.4096 9.69089C9.68374 10.4064 8.95425 11.2239 8.53119 11.9453C8.50304 11.9967 8.49429 12.0567 8.50656 12.1141C8.89775 14.2615 10.3343 16.3831 11.6158 17.9044C11.6804 17.9767 11.7645 18.0282 11.8577 18.0526C11.9509 18.077 12.0492 18.0732 12.1403 18.0416L15.0198 17.1302C15.7955 16.8846 16.6285 16.8971 17.3966 17.166C18.1647 17.4349 18.8276 17.946 19.2881 18.6243L21.3723 21.6956C21.9373 22.5285 22.2235 23.6587 21.7903 24.7456C21.4034 25.7165 20.6551 27.1167 19.2939 28.048C17.8813 29.0138 15.9464 29.3807 13.4145 28.5015C10.5856 27.5182 7.91326 25.0523 5.69726 21.8989C3.46822 18.7256 1.63326 14.762 0.52055 10.6288C-0.531308 6.72677 0.103284 4.0995 1.59704 2.40792C3.03791 0.775786 5.10251 0.222445 6.48977 0.0294358ZM8.21172 2.76972C7.88066 2.09969 7.29026 1.76872 6.73608 1.84577C5.50384 2.0175 3.96082 2.48204 2.94736 3.63056C1.98678 4.71889 1.32176 6.63577 2.2664 10.1459C3.32768 14.0853 5.07498 17.8501 7.17218 20.8348C9.28242 23.8385 11.6802 25.9594 14.0013 26.7659C16.0695 27.4844 17.3988 27.1292 18.2797 26.5274C19.2113 25.8897 19.7843 24.8762 20.1103 24.0587C20.2596 23.6844 20.1951 23.2 19.8792 22.7348L17.7951 19.6642C17.5539 19.3089 17.2067 19.0411 16.8044 18.9002C16.4021 18.7593 15.9658 18.7526 15.5595 18.8812L12.6799 19.7927C11.8193 20.0649 10.8501 19.822 10.2379 19.0955C8.90427 17.5125 7.20478 15.0849 6.72449 12.4466C6.63275 11.9521 6.7213 11.4408 6.97369 11.0075C7.5228 10.0725 8.3921 9.1192 9.14478 8.37652C9.88006 7.65145 10.0887 6.57266 9.67288 5.72943L8.21172 2.76972Z" fill="#D2D2D2"/>
</svg>
